<?xml version="1.0" encoding="UTF-8"?>
<svg id="Layer_2" data-name="Layer 2" xmlns="http://www.w3.org/2000/svg" viewBox="0 0 1403.48 535.36">
  <defs>
    <style>
      .cls-1 {
        fill: #e4c121;
      }

      .cls-2 {
        fill: #737371;
      }

      .cls-3 {
        fill: #606161;
      }

      .cls-4 {
        fill: #a7a9ac;
      }

      .cls-5 {
        fill: #507abd;
      }
    </style>
  </defs>
  <path class="cls-5" d="M782.78,31.88c-16.97,0-33.95-.02-50.92,0-.03,3.05-.02,6.1,0,9.15,16.96.02,33.91-.02,50.87.02.13-3.06.04-6.12.05-9.18M753.7,66.49c-11.6-.03-23.21-.02-34.81,0-.04,10.29,0,20.58-.02,30.88l.22-.12v.2c15.48,0,30.95,0,46.43,0-.01-.34-.04-.68-.06-1.01-.08.02-.25.06-.33.07,0-.38-.03-.75-.05-1.12-.07.02-.21.06-.29.08-.07-.26-.14-.52-.23-.76-.35.24-.72.48-.92.87-.24.06-.47.12-.73.2-.01.05-.04.16-.05.21-.08-.02-.25-.07-.34-.09l.03.2c-1.31.33-2.68.14-4.03.17v-.19c-.08.02-.25.07-.34.09l.03-.25c-.09.03-.26.08-.34.11v-.18c-.52,0-.81-.39-1.23-.59l-.02-.21c-.08.03-.24.07-.32.1-.05-.23-.11-.46-.17-.68-.07,0-.21.01-.28.01-.03-.05-.08-.14-.11-.18-.39-.64-.76-1.33-.73-2.09,0-1.5,0-3,0-4.5-.01-.93.52-1.72.82-2.56.11-.05.32-.14.42-.19.14-.07.27-.12.4-.18,0-.06-.03-.18-.03-.24.28-.02.49-.11.58-.37.28-.06.56-.12.82-.17-.02-.05-.05-.16-.07-.21.7-.09,1.4-.15,2.1-.14-.02-.27-.04-.54-.06-.8-.09,0-.28-.01-.38-.02-.1-.66-.29-1.31-.52-1.94-.07-.04-.21-.12-.28-.16-.01-.21-.02-.42-.04-.63-.01-.29-.04-.57-.06-.85-.08.02-.25.07-.33.09-.02-.31-.03-.62-.06-.92-.08.02-.23.07-.3.09-.05-.45-.1-.9-.2-1.35-.08,0-.23,0-.31,0,0-.29-.02-.57-.04-.85h-.21s.1-.23.1-.23c-.07.03-.2.08-.27.1-.03-.36-.07-.72-.1-1.08-.05.02-.15.07-.2.1-.1-.34-.16-.69-.21-1.04-.33.04-.35-.23-.4-.46-.59-.41-.51-1.14-.48-1.75-.06.01-.19.04-.25.05-.02-.4-.04-.8-.06-1.2-.08.01-.24.04-.32.06-.03-.36-.06-.73-.11-1.09-.07.01-.21.05-.28.06.02-.08.06-.25.08-.33h-.2c0-.26-.01-.5-.02-.75-.08.02-.23.07-.31.09-.04-.53-.12-1.05-.18-1.57-.08.02-.25.06-.33.07-.01-.29-.03-.57-.05-.86M612.72,81.7c-23.69,0-47.38,0-71.07,0,0,6.42-.04,12.84.02,19.26,18.95-.02,37.9,0,56.85,0,4.73.01,9.46-.02,14.18.01.07-1.53.02-3.06.04-4.59,0-4.89.02-9.79-.01-14.68"/>
  <path class="cls-4" d="M593.45,15.02c.5.12,1.02.14,1.52.03M802.43,6.84c-.95-.3-1.95-.48-2.96-.5-.79-.09-1.59-.16-2.4-.09-.8.08-1.6-.1-2.4.03-.46.08-.93.1-1.39-.03-.92-.04-1.84-.04-2.75,0-.23.07-.46.07-.7,0-5.28-.07-10.57-.01-15.85-.03h-33.96c-4.13.02-8.27-.04-12.41.03-.34.1-.69.12-1.04,0-2.06.02-4.13-.04-6.2,0-.23.07-.47.07-.7-.02-.57-.04-1.15.2-1.72.01-.22,0-.45,0-.68,0-.28.1-.58.1-.87,0-2.3.05-4.6-.08-6.9.05-2-.12-4.01-.05-6.02-.07-.86-.04-1.73.19-2.59.02-.68-.04-1.37-.04-2.06,0-.88.17-1.78.09-2.67.14v.15c-.92-.02-1.74.38-2.58.69l-.02.12c-.3.04-.59.1-.9.15l.09.18c-.93.09-1.54.84-2.4,1.08-.15.2-.29.42-.57.47v.14c-.13,0-.38.02-.51.02,0,.07.02.23.03.3-.22.05-.44.12-.68.18-.14.27-.47.36-.65.6-.2.11-.4.22-.61.33-.04.09-.1.26-.14.34-.24.12-.48.24-.73.36-.19.2-.39.4-.59.6-.2.06-.4.16-.43.39-.23.13-.47.25-.71.38-.05.12-.1.25-.17.39-.29.1-.57.26-.75.51-.22.22-.43.48-.77.57,0,.08-.02.25-.02.33-.08-.01-.23-.03-.31-.04-.07.34-.42.42-.63.66-.2.13-.37.32-.49.54-.07,0-.21-.02-.28-.03,0,.09,0,.27,0,.36-.1,0-.29.02-.38.03-.16.5-.78.63-1.05,1.08-.12.12-.25.24-.37.37-.07,0-.2,0-.27,0,0,.07-.02.23-.02.3-.35.14-.72.29-.91.64-.21.05-.38.16-.49.35-.19.09-.46.13-.52.39-.15.07-.3.14-.46.21-.06.16-.12.33-.18.5-.08-.02-.24-.05-.32-.06-.01.07-.03.22-.04.3-.29,0-.49.13-.52.42-.08-.01-.23-.03-.31-.04,0,.09-.02.25-.02.33-.31,0-.52.12-.53.47-.08,0-.26,0-.34,0v.25c-.06-.01-.21-.04-.28-.05-.09.43-.47.6-.87.72-.17.2-.36.41-.54.62-.25.05-.5.1-.76.16,0,.06.03.18.04.24-.24.05-.51.12-.76.2-.09.03-.27.09-.37.12-2.14.46-4.36.18-6.54.13-40.45,0-80.89,0-121.34,0-2.75-.02-5.51-.06-8.26.13l.11.19c-.69.05-1.39.15-2.05.39-.42.33-.96.45-1.48.6l.06.16c-.36.09-.69.26-.97.51-.1,0-.29.03-.39.04,0,.07,0,.2.01.27-.36.09-.59.36-.81.64-.26.09-.36.33-.49.55-.07,0-.21-.03-.28-.04,0,.13-.02.39-.03.52-.11,0-.33,0-.44.01,0,.12,0,.37,0,.49-.09,0-.25,0-.34-.01.03.56-.66.76-.61,1.34-.08,0-.23-.03-.31-.03v.55c-.09,0-.27.02-.36.03-.04.26-.1.53-.16.81-.09.04-.26.11-.34.15,0,.2,0,.4,0,.61-.08.06-.24.17-.32.23,0,.22-.02.45-.03.68-.08-.01-.25-.03-.33-.04-.04.4-.1.81-.15,1.22-.08-.02-.25-.05-.33-.07-.02.29-.03.57-.06.86-.09,0-.26-.02-.35-.03-.04.39-.09.79-.14,1.2-.08,0-.25-.03-.33-.04,0,.24-.02.48-.03.73-.08-.01-.25-.04-.33-.06-.05.41-.11.81-.16,1.22-.08-.01-.24-.05-.32-.06,0,.24-.02.49-.04.73-.08-.01-.24-.03-.32-.04-.05.32-.11.65-.19.97-.25.3-.25.69-.33,1.05-.08,0-.24-.03-.33-.04-.01.29-.03.58-.05.88-.08-.01-.24-.04-.31-.05-.05.39-.12.79-.18,1.19-.08,0-.25-.03-.33-.04,0,.24-.02.48-.04.73-.08-.01-.24-.04-.32-.06-.02.33-.03.66-.11.99-.17.48-.34.95-.49,1.44-.09.05-.26.15-.35.2-.01.1-.04.3-.06.4-.08,0-.25-.01-.33-.02-.01.28-.03.57-.06.86-.08-.01-.24-.05-.33-.06.05.73-.44,1.33-.52,2.04-.08,0-.24-.03-.31-.04,0,.3-.02.6-.03.9-.08-.01-.25-.05-.33-.06-.04.36-.1.72-.16,1.09-.08-.02-.25-.06-.33-.08,0,.29-.02.59-.04.89-.08,0-.24-.03-.33-.04-.04.33-.08.66-.14.99-.09,0-.27-.01-.36-.02,0,.29-.02.59-.04.89-.08,0-.24-.03-.32-.04-.05.34-.09.67-.16,1.02-.08,0-.25-.01-.33-.02-.02.24-.07.49-.11.74-.06.07-.19.23-.26.3,0,.22-.02.44-.04.67-.08-.01-.25-.04-.33-.06-.05.35-.11.7-.17,1.06-.08-.02-.24-.05-.32-.06,0,.29-.02.59-.04.9-.08-.01-.25-.04-.33-.05-.06.4-.12.8-.18,1.21-.08-.02-.23-.04-.31-.06-.11.45.2,1.23-.42,1.42-.02.34-.04.68-.05,1.04.02,6.59.02,13.18-.02,19.77-1-.08-1.81-.7-2.65-1.17-.03-.02-.09-.06-.12-.08-.27-.26-.7-.22-1.06-.3-1.17-.27-2.37-.15-3.56-.18-1.27.01-2.54-.04-3.81.05-.47.14-.96.2-1.45.26.01.05.04.16.06.21-.28.04-.56.08-.86.12-.01.04-.03.12-.04.17-.24.06-.49.13-.74.21-.04.07-.11.2-.15.26-.21.07-.43.14-.66.22-.13.08-.28.17-.43.25-.12.17-.25.34-.38.52-.22.18-.43.36-.63.58-.07,0-.21-.02-.28-.03,0,.12-.02.37-.03.49-.34,0-.48.2-.52.53-.08,0-.23-.02-.31-.02-.01.23-.03.47-.05.72-.09,0-.26-.03-.34-.04-.03.17-.09.5-.12.66-.09,0-.26,0-.35,0,0,.35-.02.7-.04,1.05-.08-.01-.25-.04-.33-.05-.04.48-.11.95-.1,1.44.05,8.66,0,17.31.02,25.97.02.72.03,1.45-.03,2.17-.02.53.07,1.06.11,1.59.08-.01.24-.04.32-.05.02.29.02.59.03.89.08,0,.24-.02.32-.03.07.29.13.58.18.87.08-.02.25-.05.34-.06,0,.13,0,.39,0,.52.09.03.28.08.37.11.04.15.11.44.14.58.09-.01.26-.03.34-.04.01.12.03.35.05.46.26.04.45.17.53.41.06,0,.16-.01.22-.02.09.53.7.58,1,.94.33.3.76.46,1.19.57l-.08.17c.31.05.61.11.9.17l.02.12c.2.04.39.09.58.16,1.24.31,2.53.21,3.8.24,1.56-.02,3.13.05,4.68-.08.32-.06.63-.1.93-.14l.02-.11c.43-.13.86-.25,1.29-.37.08-.35.5-.28.76-.37l.02-.15c.01-.11.03-.31.05-.42.3-.01.58-.02.86-.02.05,4.11.05,8.22,0,12.33-.11,0-.32,0-.43,0-2.66-.01-5.33-.01-8,0l-.13.11c-.33,0-.68,0-1.02.02.02.05.06.14.08.19-.47.09-.94.19-1.4.34l-.03.11c-.22,0-.43.1-.56.3-.25.1-.5.2-.76.31-.14.12-.29.25-.42.4-.2.13-.42.25-.64.38-.14.3-.51.42-.61.77-.33.1-.35.46-.47.74-.08-.01-.23-.04-.3-.06,0,.24-.02.49-.04.74-.08,0-.25-.02-.33-.03-.03.36-.06.72-.08,1.09,0,8.49,0,16.98,0,25.47.01.4.05.8.07,1.2.52.02.31.59.39.91.08-.01.23-.04.31-.05.06.27.12.54.16.82.08,0,.23,0,.3,0,.07.22.09.49.35.59.24.17.54.31.63.61.05,0,.16,0,.21,0,.12.18.28.33.48.41.31.22.64.39.97.56.09,0,.18.02.26.04.46.23.98.26,1.48.29-.02.05-.05.15-.07.2,2.11.05,4.23.13,6.35.06,7.58.05,15.17-.02,22.76-.02,4.94,0,9.87,0,14.81,0,1.47.04,2.94-.09,4.39.07.01.31.03.63.04.96.66.38.34,1.28.49,1.91.08,0,.24,0,.32,0,.01.4.03.8.04,1.2.09-.01.26-.04.34-.06.06.4.11.81.16,1.22.08-.01.24-.03.32-.05.01.29.02.58.02.87.08,0,.25,0,.33,0,.07.34.13.67.18,1.02.08-.01.24-.04.32-.05.02.29.04.59.04.9.08-.01.25-.04.33-.05.05.22.09.46.12.69.05-.02.16-.05.22-.07.06.34.13.69.18,1.04.08,0,.26-.02.34-.02,0,.13,0,.39,0,.52.09-.01.27-.04.36-.05.05.25.1.51.14.77.08-.02.24-.06.33-.07.01.14.03.41.05.55.08-.01.24-.04.32-.06.07.23.13.46.19.7.08,0,.24-.03.32-.04,0,.13.02.4.03.53.15,0,.28,0,.42,0,.01.12.03.38.04.5h.31c.12.29.29.58.48.86.07-.01.2-.03.26-.04.12.26.12.66.48.73.21.23.45.45.65.7.2.09.42.17.51.38.14.1.26.23.35.38.07,0,.21-.02.29-.03,0,.09,0,.28,0,.38.07,0,.21-.01.29-.02.1.15.22.27.36.37.23.2.45.41.66.63.08,0,.24.03.32.04.01.42.43.43.75.52.09.22.18.46.46.5-.01.07-.04.2-.06.27-25.72-.03-51.43,0-77.15-.01-.45,0-.92-.02-1.35.15-.35.14-.83.14-1.05.49-.26.03-.52.05-.8.1,0,.06.02.19.03.25-.33.07-.66.16-1,.25-.07.13-.14.26-.23.4-.36.16-.75.32-.9.73-.07,0-.2-.03-.27-.04-.01.14-.03.43-.04.57-.08-.02-.25-.07-.33-.09-.05.63-.06,1.27-.01,1.91.09-.02.26-.05.34-.07,0,.14.01.41.02.55.08,0,.23-.02.31-.03.08.22.22.4.46.47.18.35.59.48.95.59,0,.07,0,.21,0,.28.08,0,.25-.01.34-.01l.02.17c.46.1.9.23,1.34.37v.12c.4.07.77.16,1.14.25.67.19,1.37.12,2.06.13,47.81,0,95.62,0,143.42,0,4.02-.03,8.04.09,12.06,0h166.51c.73.02,1.43-.21,2.12-.38l.04-.12c.49-.14.99-.26,1.42-.51h.15c.01-.07.03-.21.04-.28.27-.12.52-.27.77-.41.09-.26.17-.56.52-.52.01-.23.02-.45.03-.66.08.01.25.04.34.06,0-.39,0-.77,0-1.15-.5-.04-.3-.58-.39-.9-.08.01-.24.04-.32.06-.05-.23-.11-.45-.17-.67-.11-.03-.33-.09-.44-.13-.16-.17-.32-.35-.46-.54-.25-.16-.51-.31-.73-.5-.2-.07-.38-.18-.52-.33-.2-.03-.4-.04-.6-.05-.05-.07-.15-.21-.2-.28-.59-.11-1.18-.25-1.79-.23-14.36,0-28.73,0-43.1,0,.17-.2.33-.41.49-.6.44-.18.75-.53,1.15-.74l.02-.1c.27-.15.55-.29.83-.41,0-.08.01-.24.02-.32.08,0,.23.03.3.04.15-.57.89-.62,1.03-1.16.05,0,.14,0,.19,0,.16-.32.46-.54.64-.84.07.01.21.03.27.04.03-.13.1-.38.13-.51.24-.03.38-.19.45-.39.07,0,.21.03.28.04.06-.24.11-.47.16-.7.09,0,.27.01.36.02,0-.1,0-.31.01-.41.44.04.48-.31.52-.63.06,0,.19.03.25.04.18-.34.36-.68.5-1.03.07,0,.2.02.27.03.06-.29.12-.57.18-.84.09,0,.27.02.35.03,0-.14,0-.4,0-.53.09.01.26.04.34.05.05-.3.11-.59.15-.87.08.01.25.03.34.04,0-.13.01-.39.02-.51.09-.04.27-.13.37-.18.06-.35.12-.69.16-1.02.08.01.24.03.32.04.02-.24.03-.48.04-.71.08.01.26.04.34.05.06-.41.11-.82.16-1.23.08.01.23.04.31.05.02-.22.04-.42.06-.63.33-.55.35-1.19.47-1.8.05.03.16.09.21.12.04-.53.09-1.05.15-1.57.08.01.25.03.33.04.02-.45.03-.9.03-1.35.19-.05.38-.09.57-.13,10.06-.01,20.13,0,30.19,0,2.62-.02,5.25.07,7.87-.04-.02-.05-.06-.15-.08-.2.83,0,1.63-.16,2.43-.33l.02-.11c.3-.05.6-.11.9-.15l-.06-.17c.42-.1.84-.24,1.15-.54.06,0,.18.02.23.02.03-.08.08-.23.11-.31.27-.13.53-.26.79-.4.05-.17.1-.34.15-.51.08.01.25.05.34.06,0-.14.01-.41.02-.54.09,0,.26.03.34.04.04-.29.1-.59.14-.87.09,0,.26.03.35.04-.04-.99.25-1.95.2-2.93,0-7.75,0-15.49,0-23.23.13,0,.39-.01.52-.01-.01-.05-.03-.16-.04-.21.46-.05.92-.12,1.33-.31.28-.23.58-.46.94-.55,0-.06.02-.18.03-.24.26-.02.44-.14.54-.36l.1.04c.08-.16.19-.3.31-.42.17-.19.35-.38.57-.51.1-.29.12-.67.53-.61,0-.13.01-.38.02-.51.08,0,.25.03.33.04.06-.33.11-.65.17-.97.47.04.32-.47.39-.75.08.02.23.05.31.07.02-.36.04-.71.06-1.06.04-.65.38-1.23.43-1.87.07-.66.15-1.31.22-1.96.06.07.17.22.23.29-.03-.49-.03-.97-.04-1.45-.5-.86-.27-1.88-.59-2.79-.09-.3-.19-.61-.22-.91-.03-.38-.05-.76-.07-1.13-.08.02-.25.05-.34.07-.01-.31-.03-.61-.05-.91-.08.01-.24.03-.33.04-.05-.33-.11-.66-.16-.98-.09,0-.26,0-.35,0,0-.14-.01-.42-.01-.56-.08.01-.25.04-.33.05-.06-.24-.12-.47-.19-.7-.08.01-.25.03-.33.04,0-.09,0-.26.01-.34-.29,0-.44-.16-.48-.42-.14-.12-.29-.24-.43-.36-.13-.13-.26-.25-.39-.37-.28-.1-.56-.2-.84-.3-.16-.12-.32-.23-.48-.34-.51-.1-1.01-.23-1.51-.37,0-.4-.02-.8-.03-1.2-.08.01-.25.04-.33.05-.04-.28-.08-.57-.12-.84-.09,0-.28,0-.38,0,0-.23-.02-.46-.04-.69-.1,0-.29.01-.39.02,0-.12,0-.36-.01-.48-.11,0-.33,0-.44,0,0-.13-.02-.39-.03-.52-.07,0-.22.02-.29.03-.06-.27-.29-.36-.55-.38,0-.08-.01-.25-.01-.33-.07.01-.22.03-.29.05-.07-.23-.22-.41-.48-.44-.2-.21-.42-.39-.7-.49-.15-.16-.34-.28-.57-.29l-.02-.11c-.65-.19-1.32-.26-1.97-.47-.09-.02-.29-.06-.38-.08-.76-.41-1.64-.47-2.43-.79-.34-.14-.72-.17-1.09-.19v-.13c-.59-.17-1.23-.2-1.77-.51-.38-.1-.77-.17-1.16-.2v-.12c-.46-.12-.9-.24-1.34-.38v-.12c-.78,0-1.45-.38-2.19-.52-1.13-.29-2.24-.67-3.38-.95-.26-.08-.53-.15-.8-.22l-.02-.16c-.11,0-.33-.01-.43-.02-.45-.21-.95-.27-1.44-.34-.37-.14-.74-.28-1.12-.42-.56-.17-1.13-.31-1.71-.4l.08-.16c-.44-.07-.9-.12-1.31-.3-.19-.02-.39-.04-.59-.06l-.22-.29c-.2-.02-.4-.04-.61-.05-.48-.21-1.01-.25-1.5-.43-.19-.03-.39-.05-.58-.07-.06-.07-.17-.21-.22-.28-.2-.02-.41-.04-.62-.06-.36-.21-.92-.1-1.17-.46-.41-.08-.83-.12-1.21-.29-.2-.02-.4-.04-.61-.06-.05-.07-.16-.21-.22-.29-.2-.02-.4-.04-.6-.06-.48-.2-1.01-.26-1.5-.43-.11-.01-.33-.04-.44-.05-.13-.1-.27-.2-.4-.3-.19-.02-.38-.04-.57-.05-.33-.23-.74-.18-1.13-.22.02-.06.05-.18.07-.24-.45-.06-.9-.13-1.34-.26-.54-.19-1.1-.3-1.67-.36.02-.05.05-.16.07-.22-.45-.03-.91-.09-1.33-.28-.17-.04-.35-.07-.53-.1-.27-.16-.58-.28-.89-.35-.75-.12-1.44-.42-2.17-.62-.04-.24-.09-.47-.14-.69-.08.02-.23.06-.31.07-.01-.29-.03-.58-.05-.86-.09,0-.26.01-.35.01-.04-.41-.1-.82-.14-1.23-.08.02-.24.07-.32.09-.02-.29-.03-.59-.06-.88-.09,0-.27,0-.36.01-.03-.35-.07-.7-.11-1.05l-.18.11c-.11-.37-.23-.74-.36-1.11-.06.02-.17.06-.22.08-.03-.36-.07-.72-.1-1.07l-.18.1c-.11-.37-.22-.73-.4-1.06-.11-.28-.14-.57-.17-.86-.07,0-.22.03-.29.04-.04-.41-.1-.82-.16-1.23-.08.02-.25.06-.34.07-.01-.3-.03-.59-.04-.88-.08,0-.24.03-.32.04-.05-.42-.1-.83-.16-1.24-.09-.03-.27-.08-.36-.11,0-.24,0-.47,0-.7-.08.01-.25.03-.33.04-.05-.42-.07-.85-.2-1.26-.08-.03-.23-.08-.31-.11,0-.23-.02-.46-.03-.68-.08.01-.24.03-.32.04-.04-.38-.09-.75-.17-1.12-.3-.28-.28-.7-.36-1.06-.08.01-.24.04-.32.05,0-.31-.02-.6-.03-.9-.08,0-.25.02-.33.03-.04-.39-.1-.77-.15-1.15-.09,0-.26,0-.34,0-.1-.35.17-1.03-.39-1.05-.04-.32-.08-.64-.12-.96-.09,0-.27,0-.36.01-.01-.34-.03-.69-.05-1.02-.11,0-.22.02-.33.04-.03-.35-.06-.7-.11-1.04-.09,0-.28.02-.37.02-.02-.34-.03-.69-.05-1.03-.11.01-.21.03-.33.05-.04-.37-.08-.73-.13-1.08l-.21.09c-.05-.36-.1-.72-.15-1.08-.1,0-.21.02-.32.04-.01-.35-.03-.69-.05-1.04-.08.01-.25.04-.33.05-.06-.4-.12-.79-.18-1.18-.08,0-.24.01-.32.01,0-.29-.01-.59-.02-.87-.08,0-.25.02-.33.02-.06-.39-.12-.79-.19-1.17-.08,0-.24.03-.32.04,0-.33-.02-.65-.04-.97-.57-.03-.36-.72-.49-1.08-.08.01-.24.04-.32.06,0-.32-.02-.64-.04-.96-.54-.1-.33-.72-.39-1.09,3.32-.01,6.65.02,9.97-.04-.36-.38-.9-.26-1.38-.26-1.2,0-2.41,0-3.61,0,2.14-.03,4.27-.01,6.41-.02h.14c4.31-.09,8.63-.04,12.94-.08.57,0,1.14,0,1.7.06,2.35.16,4.72.04,7.08,0,.97-.17,1.98,0,2.94-.24.83-.1,1.65-.3,2.47-.44.57-.17,1.15-.26,1.73-.3l.03-.13c.28-.07.56-.14.83-.21l.03-.12c.41-.14.83-.26,1.24-.36,0-.06-.02-.17-.03-.22.71-.08,1.09-.72,1.7-.98,0-.08.02-.23.03-.31.07,0,.22.03.29.04.12-.41.6-.58.62-1.03.08.01.24.03.31.05.04-.24.08-.48.11-.71.08,0,.26.01.34.02.02-.28.04-.57.05-.84.09.01.28.03.37.04.05-.41.09-.82.12-1.22.05.01.16.03.22.04.02-.42.03-.83.05-1.24,0-.45.1-.9.36-1.27.14-2.31.05-4.62.08-6.92v-18.33c-.03-5.04.06-10.09-.05-15.13-.08-.07-.23-.21-.31-.28-.03-.33-.05-.66-.08-.98-.02-.34-.04-.68-.06-1.02l-.19.03c-.05-.41-.11-.81-.17-1.21-.08.02-.25.06-.33.07-.01-.25-.03-.49-.04-.73-.08.01-.24.03-.32.04-.04-.28-.08-.55-.13-.82-.1,0-.3,0-.39,0,0-.14-.02-.42-.02-.55-.08.02-.25.05-.33.07-.06-.21-.11-.42-.17-.63-.08-.01-.25-.04-.34-.06-.2-.21-.38-.42-.54-.65-.35-.17-.61-.46-.74-.81-.23-.06-.45-.13-.48-.39-.2-.07-.4-.13-.61-.19-.12-.41-.6-.38-.94-.49,0-.06.03-.17.03-.23-.38-.13-.91-.14-1.09-.56-.09-.02-.28-.05-.37-.07M797.22,15.17c-.03.05-.09.15-.13.2,1.01-.02,2,.15,2.98.37,0,.08,0,.23,0,.31.09-.02.27-.07.36-.09v.26c.11,0,.31,0,.42,0,0,.12,0,.35,0,.47.11,0,.32,0,.43,0,.03,8.13,0,16.26.01,24.4-.02,4.99.05,9.99-.04,14.98-.4.07-.34.51-.49.8-.27.24-.59.42-.88.65-.09,0-.27.02-.36.03-1.74.76-3.71.29-5.55.28-23.27,0-46.54,0-69.81,0-2.02.01-4.04-.04-6.05.12-.94-.03-1.88.07-2.79.31-.06-.07-.18-.2-.24-.27l.09.15c-.31,0-.63.02-.95.03,0,.04,0,.12.01.16-.32.04-.65.09-.98.14,0,.03-.01.1-.02.14-.37.1-.69.32-1.06.45-.06.15-.13.31-.2.48-.07-.02-.22-.07-.29-.09-.02.1-.04.29-.06.39-.08-.01-.24-.04-.32-.05-.01.08-.04.23-.05.31-.18.43-.43.83-.56,1.29-.07-.06-.2-.19-.26-.25-.05.36-.09.72-.14,1.08.3.84-.16,1.83-.35,2.7-.03,14.09,0,28.19.01,42.28-.02,4,.05,8.01-.02,12,.02,14.14.03,28.28.01,42.41-.12,0-.37-.03-.49-.03v.14c-6.69-.03-13.38-.02-20.06,0-.07-.91-.03-1.83-.04-2.74v-83.58c0-1.64.05-3.28-.12-4.91-.07.02-.22.05-.3.07,0-.15-.02-.45-.03-.61-.09.02-.26.06-.35.08-.01-.14-.03-.43-.04-.57-.09,0-.29,0-.38,0-.07-.27-.04-.62-.38-.72-.11-.16-.23-.31-.35-.45-.09-.22-.25-.35-.5-.38-.02-.09-.07-.26-.09-.35-.38-.21-.76-.41-1.13-.63-.14-.16-.31-.28-.53-.31l-.02-.11c-.16-.04-.88-.14-.4-.38-.09-.01-.27-.03-.36-.04-.27-.07-.54-.11-.82-.15l.04-.2c-.09.03-.27.11-.36.14l.04-.2c-2.08-.39-4.21-.19-6.31-.24h-31.71c-1.87.04-3.77-.13-5.62.23l.06.15c-.25,0-.51-.01-.77-.01l.06.15c-.21.05-.43.1-.66.16-.07-.02-.22-.07-.3-.09l.11.28c-.24.06-.49.12-.75.18l.04.16c-.12,0-.36.01-.48.02-.03.37-.34.54-.67.66-.06-.02-.18-.05-.23-.07-.06.19-.12.39-.19.59-.08-.02-.22-.07-.3-.09-.02.1-.05.3-.07.4-.08-.02-.24-.07-.32-.09-.05.24-.12.49-.18.74-.08-.01-.25-.03-.34-.04v.44c-.09,0-.26-.02-.35-.03-.02.09-.07.27-.09.36-.03.25-.06.51-.1.78-.07-.02-.2-.05-.26-.06-.03.25-.07.51-.12.76-.33.38-.26.9-.28,1.37,0,29.74-.01,59.48,0,89.22l-.09.02v.09c-.57.07-1.15.04-1.74.05-7.39-.05-14.78-.06-22.17-.05-.02-.09-.07-.27-.09-.36,0-.18.02-.54.02-.72-.06.02-.16.05-.22.07,0-.24.01-.47.01-.69-.04,0-.13,0-.18,0-.01-.5-.04-.99-.05-1.48h-.19c.03-.07.08-.25.11-.33l-.21.04c0-.53-.03-1.05-.06-1.57-.08.02-.24.06-.32.09-.01-.28-.03-.55-.07-.81-.11-.01-.33-.04-.44-.06-.04-.24-.09-.49-.14-.72-.07-.05-.2-.16-.27-.21.02-.2.02-.4.03-.6-.02-.3-.06-.58-.1-.86l-.34.08c-.02-.3-.03-.61-.06-.9-.08.02-.23.06-.31.09-.02-.23-.05-.45-.09-.67-.09,0-.27-.02-.36-.02-.19-.39-.43-.76-.54-1.18v-.54c-.09.02-.29.05-.38.07,0-.13-.02-.39-.02-.52l-.21.02c.02-.08.06-.24.08-.32h-.18c.02-.31-.07-.55-.42-.52-.05-.26-.05-.61-.44-.47-.01-.14-.03-.42-.04-.57-.08.02-.24.06-.32.08-.05-.23-.11-.46-.17-.68-.09,0-.26.02-.35.04,0-.11.01-.31.01-.42-.09,0-.27.02-.36.03-.06-.24-.13-.48-.2-.71-.07.03-.2.08-.27.11l-.08-.31c-.07.02-.21.07-.28.09-.06-.25-.13-.5-.21-.74-.07.03-.21.07-.27.1-.17-.27-.34-.54-.49-.82-.29,0-.45-.16-.45-.44-.08.02-.24.05-.32.07,0-.09-.02-.28-.03-.38-.08.02-.25.06-.34.09-.06-.2-.12-.39-.18-.57-.07.02-.22.06-.29.09l-.08-.26c-.08.02-.23.07-.31.09-.06-.2-.12-.38-.19-.57-.08.02-.25.06-.34.08l.04-.21c-.47,0-.68-.42-.94-.72-.07.03-.21.08-.28.11l.04-.26-.23.04.04-.25-.25.14c0-.06,0-.19,0-.25-.26-.07-.53-.13-.8-.19-.06-.14-.13-.28-.2-.42-.31-.12-.81-.14-.89-.53-.25-.06-.49-.11-.76-.15,0-.06-.03-.18-.04-.24l-.15.04c-.27-.21-.62-.27-.96-.33.01-.06.03-.19.05-.25-.28-.04-.58-.08-.88-.11l.05-.16-.21.03v-.21c-.07.02-.24.07-.33.09v-.19c-.52-.16-1.05-.33-1.6-.41.02-.05.07-.16.09-.21-.3-.04-.63-.07-.95-.09l.03-.18c-.13.01-.39.03-.52.04v-.16c-.47-.06-.93-.13-1.4-.17.03-.05.08-.15.1-.2-.43-.04-.87-.1-1.31-.13,0-.04.03-.12.03-.16-.53-.01-1.05-.04-1.59-.04l.03-.16c-.29,0-.58-.01-.88,0l.03-.15c-2.25-.05-4.5-.04-6.75,0v.12c-.69.08-1.37.26-2.08.23l.05.14c-.6.04-1.19.13-1.79.18.02.05.07.16.1.21-.41.04-.84.1-1.26.15l.02.16c-.13-.01-.38-.03-.51-.04v.18c-.42.05-.83.13-1.26.19.02.05.07.16.1.21-.24.03-.49.06-.74.09l.02.17c-.14,0-.44,0-.58,0,0,.08.01.24.02.32-.13,0-.38-.01-.51-.02v.17c-.2.05-.55,0-.57.31-.29.07-.64.07-.86.31-.29.15-.74.16-.87.51-.29.06-.59.16-.87.3-.16.09-.26.24-.29.44-.08-.02-.24-.07-.32-.09v.22c-.27.07-.55.15-.85.23,0,.08,0,.24,0,.31-.07,0-.22-.03-.29-.04-.12.28-.4.4-.68.55-.05-.02-.14-.06-.19-.09-.07.2-.15.4-.24.6-.08-.04-.24-.13-.32-.17l.04.3h-.15c-.14.4-.72.37-.8.83-.08,0-.23-.02-.31-.03,0,.08.01.25.02.33-.34-.02-.55.12-.53.49-.09,0-.26-.01-.35-.02l.02.28c-.08-.02-.24-.07-.32-.09-.05.31-.1.65-.53.58-.01.08-.03.25-.04.33-.08-.02-.23-.07-.3-.1-.05.28-.05.63-.46.61-.05.07-.15.22-.2.29-.08.27-.18.54-.28.81-.07,0-.2.01-.27.02-.24.33-.48.67-.66,1.04-.06-.06-.19-.17-.25-.23-.04.23-.08.46-.13.7-.08-.02-.24-.07-.32-.1-.02.11-.05.34-.07.46-.07-.03-.21-.08-.28-.11-.06.35-.14.7-.22,1.06-.08-.02-.23-.06-.31-.08-.01.11-.04.34-.06.46-.07-.03-.22-.08-.3-.1-.05.34-.11.68-.18,1.03-.06-.01-.17-.05-.23-.06-.03.25-.07.51-.12.78-.08-.02-.25-.06-.33-.08,0,.29-.03.59-.05.89-.09,0-.26-.02-.35-.03-.03.29-.08.59-.13.89-.08-.02-.25-.06-.34-.08,0,.29-.01.58-.03.88h-.21c.03.08.09.26.12.35-.08-.02-.23-.05-.3-.07,0,.18,0,.54,0,.72-.03.25-.09.52-.31.71-.07.48-.13.96-.18,1.45-.1,0-.31.03-.41.03-.01.39-.03.78-.06,1.18-.08-.02-.23-.06-.3-.08-.01.84-.05,1.69-.09,2.54-.12,0-.35,0-.47-.01v.16c-9.91-.02-19.81-.02-29.7,0-.08-.97-.04-1.94-.04-2.91-.01-22.59.02-45.19-.02-67.79-.09.04-.27.12-.36.16-.03-.49-.08-.97-.06-1.46.13-2.25-.09-4.52.04-6.77-.04-1.31-.04-2.62-.03-3.92-.11-3.8,0-7.62,0-11.42.02-.74-.19-1.65.43-2.22.01-.5.03-.99.03-1.48.05.02.14.08.18.1.11-.64.27-1.27.25-1.92.08.02.25.06.33.07.05-.35.1-.71.13-1.06.05.02.15.07.2.09.04-.43.11-.85.17-1.26.08.02.24.07.32.09.03-.29.05-.58.06-.87.77.03,1.53.19,2.3.18h158.58c.84,0,1.69-.08,2.47-.39,0-.08,0-.24,0-.32.09.02.26.06.35.09.01-.05.04-.16.05-.21.22-.08.44-.15.65-.22.07-.2.13-.39.19-.58.3-.01.42-.17.37-.46.07.01.22.04.3.06.06-.32.12-.63.17-.94.43-.76.31-1.64.33-2.47,0-1.61,0-3.22,0-4.83-.02-1.7.09-3.41-.12-5.1-.16-.19-.25-.42-.32-.64,0-.17,0-.51-.01-.68-.09.01-.27.04-.37.06,0-.15-.03-.44-.03-.59-.08.02-.25.06-.33.09-.06-.2-.11-.4-.18-.59-.07.02-.2.05-.27.06-.02-.1-.06-.3-.08-.39-.08.03-.24.1-.32.13v-.22c-.22-.06-.56-.01-.57-.32-.02-.01-.07-.04-.09-.06-.45-.02-.9-.09-1.34-.18-.79.2-1.6.09-2.41.11-48.55,0-97.1,0-145.65,0-1.74-.05-3.5.11-5.23-.1.01-.19.01-.38,0-.56.1-.02.3-.08.4-.1,0-.12,0-.38,0-.5.07.02.19.05.26.07.11-.41.18-.82.2-1.24.09,0,.27.02.36.04.03-.35.07-.69.11-1.03.07.02.19.06.26.07,0-.19.03-.57.04-.76.07.02.21.05.28.07-.02-.09-.07-.26-.09-.35h.2c0-.14.01-.41.02-.55.09.02.26.06.34.08.06-.31.11-.61.16-.91.08.02.23.07.31.09.03-.26.04-.51.05-.76.09,0,.28.02.37.03,0-.11.03-.33.04-.44-.01-.43.24-.77.45-1.11.29-.13.59-.3.92-.28,44.93,0,89.87,0,134.8-.01,1.37-.05,2.88.03,4.07-.73.26-.07.6-.47.81-.14,0-.08.02-.23.02-.31.09.03.27.08.36.1l-.03-.23c.25-.04.59,0,.5-.34.28,0,.33-.29.44-.45.22-.06.43-.12.64-.18-.02-.34.23-.39.51-.4,0-.09,0-.26,0-.34.07.01.22.04.3.05.06-.28.25-.43.54-.42.01-.08.04-.24.05-.31.08.02.23.07.31.1.06-.17.12-.34.18-.51.26,0,.4-.1.42-.34.09-.06.28-.17.37-.23.06.01.17.04.23.05.07-.19.13-.38.19-.56.06,0,.19.03.26.04.17-.3.61-.31.66-.69l.3.05c0-.08,0-.25.01-.34.3,0,.55-.1.52-.44.08.02.23.06.31.08.01-.09.04-.28.06-.37.09.02.26.06.34.08.07-.2.14-.4.2-.59.07.03.2.1.27.13l.02-.24.21.02-.03-.21.23.04-.05-.25c.07.02.21.05.28.07.1-.25.27-.44.53-.51.08-.36.62-.27.6-.68.07.02.21.05.27.07l.08-.25c.07.02.2.07.27.09.07-.2.14-.39.21-.57.09.02.26.06.34.08,0-.09,0-.26,0-.34.23-.03.42-.13.56-.29.18-.09.29-.23.33-.43.08,0,.24.03.32.04,0-.08-.01-.24-.02-.32.31-.01.57-.09.54-.44.07.02.21.07.28.09l.09-.25c.07.02.21.06.28.08.08-.21.15-.42.22-.62.26-.07.52-.16.77-.23.02-.09.05-.27.06-.35.09.01.27.03.37.04,0-.08-.02-.24-.02-.32.44-.01.65-.4.9-.68.23-.11.46-.22.69-.29,0-.09.02-.27.02-.36.12,0,.35,0,.47,0v-.28c.07.03.22.08.29.11.06-.33.15-.64.57-.57,0-.08,0-.23,0-.31.27.03.43-.09.49-.34l.16.07c.21-.22.41-.45.59-.68.35.06.41-.26.51-.5.12,0,.35-.01.47-.01l-.03-.17c.38-.06.76-.13,1.14-.17-.02-.05-.07-.15-.1-.19,2.28-.15,4.56-.1,6.83-.11,12.04-.01,24.08-.06,36.13-.04l-.03-.15c5.6-.01,11.21-.09,16.81-.08,11.81.05,23.63.05,35.44.08l-.04.14c1.75-.02,3.5.11,5.25.15M753.7,66.49c.02.28.04.56.05.86.08-.02.24-.06.33-.07.07.52.14,1.04.18,1.57.08-.02.23-.07.31-.09.01.24.02.49.02.74h.2c-.02.09-.06.25-.08.34.07-.02.21-.05.28-.06.04.36.08.72.11,1.09.08-.01.24-.04.32-.06.02.4.04.8.06,1.2.06-.01.19-.04.25-.05.09.29.17.58.25.88.06,0,.18-.02.24-.02,0,.29,0,.59,0,.9.05.23.08.5.4.46.04.35.11.7.21,1.04.05-.02.15-.07.2-.1.03.36.07.72.1,1.08.07-.02.21-.08.27-.1l-.1.24h.21c.02.26.03.55.04.84.08,0,.23,0,.31,0,.1.44.15.89.2,1.35.08-.02.23-.07.3-.09.03.3.04.61.06.92.08-.02.25-.07.33-.09.02.28.05.56.06.85.1,0,.29.03.39.04.09.65.33,1.27.58,1.88.23.22.22.53.24.82.02.26.04.53.06.8-.7-.01-1.4.05-2.1.14.02.05.05.16.07.21-.27.04-.55.11-.82.17-.09.26-.3.35-.58.37,0,.06.03.18.03.24-.13.05-.26.11-.4.18-.07.26-.05.63-.37.75-.23.42-.45.86-.44,1.35-.02,1.77,0,3.54,0,5.31.03.51-.07,1.11.36,1.5-.01.14-.03.28-.05.43.03.05.08.14.11.18.07,0,.21-.01.28-.01.06.22.11.45.17.68.08-.03.24-.07.32-.1l.02.21c.42.2.71.59,1.22.59v.18c.09-.03.26-.08.35-.11l-.03.25c.08-.02.26-.07.34-.09v.19c1.34-.03,2.71.16,4.02-.17l-.03-.2c.08.02.25.07.34.09.01-.05.04-.16.05-.21.25-.07.49-.14.73-.2.2-.39.58-.63.92-.87.08.25.16.5.23.76.07-.02.22-.06.29-.08.02.37.04.74.05,1.12.08-.02.25-.06.33-.07.02.33.04.67.06,1.01-15.47,0-30.95,0-46.43,0v-.2s-.22.12-.22.12c.03-10.29-.02-20.59.02-30.88,11.6-.02,23.21-.02,34.81,0M680.95,74.37c-.09,2.16.01,4.33-.05,6.5-.12,0-.35,0-.47,0-12.72,0-25.45,0-38.17,0-.11.01-.34.04-.45.05-.02-2.25-.07-4.51.03-6.76,12.79-.03,25.59,0,38.38-.02.27.01.61-.06.74.23M680.87,89.13c.08,1.41.03,2.83.04,4.25v42.12c-.02,8.74.04,17.47-.03,26.21-12.87.03-25.74,0-38.62.01-.12-.01-.35-.03-.47-.04-.05-5.23,0-10.46-.02-15.7,0-18.31,0-36.63,0-54.94.02-.64-.07-1.28.1-1.9.11,0,.32-.02.42-.03,12.86.02,25.72-.01,38.58.02M767.61,106.44c-.02,12.01.04,24.02-.03,36.03-.13-.06-.38-.18-.51-.24-.07.02-.2.05-.26.07v-.15c-.04-.1-.13-.31-.18-.41-.07.02-.2.05-.27.07v-.27c-.07.01-.22.04-.29.05-.24-.12-.49-.24-.66-.45-.09-.07-.27-.21-.37-.28-.05.02-.15.06-.2.08-.07-.3-.34-.33-.61-.35.01-.05.04-.15.06-.2-.3.03-.5-.08-.6-.33-.07.03-.2.08-.27.1l-.03-.21c-.26-.05-.53-.11-.8-.17,0-.07,0-.22,0-.29-.23-.03-.46-.06-.7-.08-.23-.15-.46-.3-.69-.46-.1,0-.29-.02-.39-.02l.04-.16c-.31-.04-.61-.09-.93-.12.02-.06.06-.17.08-.22-.44-.07-.89-.13-1.29-.31-.11-.02-.32-.06-.42-.08-.41-.18-.86-.22-1.3-.25.02-.05.07-.15.1-.2-.66-.06-1.31-.16-1.97-.21l.02-.13c-.36,0-.74-.01-1.11-.02l.12-.17c-.12.38-.56.04-.83.07-1.59-.24-3.22-.19-4.82-.17-1.66.01-3.26.54-4.92.54-.24.05-.49.07-.74.1.03.05.08.15.1.2-.35.03-.7.06-1.06.09,0,.05.01.14.02.18-.24,0-.48,0-.72,0v.16c-.42.06-.84.14-1.26.2.02.06.07.17.09.23-.31.02-.62.07-.94.1l.04.14c-.26,0-.53.02-.6.32-.11,0-.33,0-.43,0l.05.18c-.26.04-.51.08-.78.13,0,.06.03.18.04.24-.28.05-.57.11-.86.16v.22c-.1-.03-.27-.09-.35-.12,0,.07-.02.2-.03.27h-.5c.01.07.03.21.04.28-.27,0-.54.06-.62.37-.05-.04-.15-.14-.2-.18l-.12.27c-.06.02-.18.06-.24.08-.16.21-.39.34-.63.49l-.25-.09c-.01.08-.03.23-.04.31-.07-.02-.22-.07-.29-.09-.05.1-.15.32-.2.42l.02.15c-.08-.03-.25-.09-.33-.11l-.09.25c-.07-.03-.21-.07-.28-.1.06.36-.23.41-.53.44,0,.08-.01.25-.02.33-.07-.01-.22-.05-.3-.06-.03.37-.41.43-.7.57-.08.17-.17.34-.26.52-.07-.02-.21-.08-.28-.1-.07.2-.13.39-.2.6-.07-.02-.22-.06-.29-.09l-.07.27c-.07-.02-.22-.06-.29-.08-.06.23-.13.47-.21.71-.08-.02-.23-.07-.3-.09l-.06.28c-.07-.02-.22-.06-.3-.08-.06.22-.12.46-.19.69-.09,0-.27-.02-.36-.03,0,.09.01.28.02.37-.37-.09-.43.26-.54.52-.08-.01-.24-.04-.32-.05,0,.13,0,.39-.01.52-.08,0-.24-.01-.32-.01-.01.14-.03.42-.04.57-.08-.02-.25-.07-.33-.09-.04.23-.09.46-.14.7-.09,0-.26-.02-.35-.03-.01.13-.03.4-.04.53-.08-.02-.25-.06-.34-.08-.04.26-.1.51-.15.78-.08-.02-.24-.05-.31-.07-.01.15-.04.45-.06.6-.08-.02-.24-.07-.32-.1-.02.13-.06.39-.07.52-.02.17-.04.36-.07.55-.34.13-.33.5-.43.79-.09,0-.28,0-.38,0-.05.27-.09.55-.12.83-.06-.02-.17-.06-.22-.08-.02.29-.07.61-.1.91-.08-.02-.24-.07-.31-.09-.01.16-.03.47-.05.63-.08-.02-.23-.07-.31-.09-.04.52-.13,1.05-.19,1.57-.08-.02-.23-.07-.31-.09-.02.4-.05.81-.07,1.23-.07-.01-.22-.04-.29-.05l-.11.24c.07.6,0,1.21-.06,1.82-.09,0-.28-.02-.38-.02.01.35,0,.71,0,1.07-.08-.03-.23-.09-.31-.11-.03.57-.07,1.14-.1,1.71-.67.01-1.35-.03-2.03.02-.12-4.42-.03-8.84-.06-13.27,0-14.02,0-28.04,0-42.05h.43c16.12,0,32.24,0,48.36,0M776.08,108.06c.02-.07.06-.23.08-.3.18,0,.56-.02.74-.02l-.05.18c.29,0,.58,0,.87.02l-.04.16c.44.03.87.09,1.3.15l-.1.18c.73.04,1.43.25,2.15.38l-.07.14c.37,0,.73.02,1.09.04-.02.07-.06.2-.08.26.55.04,1.09.15,1.64.2l-.04.16c.13-.01.4-.03.53-.04v.2c.24,0,.48,0,.71,0l-.06.2.25-.08-.09.18c.57.01,1.13.12,1.68.2l-.15.15c.23.03.45.08.67.13.27.02.53.04.79.06l-.05.17c.25,0,.5,0,.75,0l-.06.14c.23.04.45.08.67.14.06-.02.17-.05.22-.07.33.07.75,0,.97.3.47.13,1.1.04,1.4.49.06,0,.18,0,.23,0l-.04.17c.13-.01.4-.04.53-.05l-.02.17c.53.05,1.05.15,1.58.2l.05.11c.44.04.96-.05,1.29.3.31.08.72.01.87.36.11,0,.34.01.45.02-.02.05-.07.14-.1.19.47.05.94.13,1.4.18,0,.04-.02.13-.03.17.25,0,.5-.01.74,0l.02.22c.08-.03.26-.08.34-.11l-.05.23c.24,0,.48,0,.71,0l-.04.15c.41.05.83.11,1.23.17,0,.04-.02.12-.02.16.3,0,.61.01.91.03-.01.07-.03.21-.05.29.3,0,.6.02.89.04l-.03.14c.42.05.83.11,1.24.17-.02.05-.07.15-.09.2.43.05.85.12,1.27.18v.16c.13,0,.4-.03.53-.04l-.05.17c.39.04.77.1,1.15.16-.02.05-.05.14-.06.18.09.02.27.06.35.08.88-.02,1.66.41,2.47.69l-.25.07c.15.02.44.06.58.08-.02.05-.06.16-.08.21.42.05.83.14,1.24.21l-.02.17c.13,0,.39-.01.52-.01l-.05.17c.32.04.63.09.93.15l-.1.18c.06.02.18.06.24.08.11,0,.34.02.45.02.72.34,1.4.77,2.16,1.04.03.08.1.25.14.34.51-.02.47.6.5.94,0,11.05,0,22.09,0,33.14-.01.25.07.59-.29.66-.79-.06-1.58-.07-2.37,0-.86-.07-1.73-.09-2.59,0-3.17-.15-6.36.04-9.53-.15,0-.06.03-.19.03-.25-.36-.02-.74-.03-1.11-.03l.05-.15c-.73-.03-1.43-.29-2.16-.35.03-.04.09-.12.12-.16-.61-.07-1.22-.18-1.81-.36l.03-.21c-.09.03-.26.1-.35.13v-.24c-.19-.02-.4-.04-.61-.05-.04-.04-.13-.1-.17-.14-.84-.07-1.67-.38-2.29-.95-.07,0-.21-.03-.28-.04.01-.05.04-.16.05-.22-.08-.02-.23-.07-.31-.09-.4,0-.74-.2-1.06-.4-.15-.15-.31-.29-.47-.43-.08-.01-.23-.04-.3-.06-.02-.07-.07-.2-.09-.26-.07-.02-.22-.05-.29-.07l-.14-.23c-.06.04-.18.11-.23.14-.08-.2-.17-.39-.25-.58-.05.02-.14.05-.19.07-.28-.13-.59-.24-.66-.57-.05.01-.16.04-.22.05-.08-.05-.24-.16-.32-.21l.1-.22c-.18-.05-.37-.09-.56-.12-.06-.17-.12-.34-.19-.51-.08.03-.23.08-.31.11-.01-.1-.04-.29-.05-.38-.08.01-.24.05-.32.06.04-.36-.22-.43-.53-.43,0-.08.02-.25.02-.33-.09,0-.26.01-.34.02-.06-.3-.21-.52-.55-.5,0-.09,0-.27,0-.36-.08.02-.23.05-.31.07-.03-.09-.08-.27-.11-.36-.23-.14-.47-.27-.71-.41-.05-.27-.14-.51-.46-.53-.02-.11-.06-.32-.08-.43-.09,0-.26.03-.35.04-.02-.12-.06-.34-.09-.45-.3-.07-.37-.37-.5-.6-.07.01-.21.04-.28.06-.01-.11-.04-.34-.05-.45-.24-.14-.43-.33-.41-.63-.03-.08-.09-.23-.12-.31-.07.02-.21.05-.28.07-.01-.15-.04-.44-.05-.59-.08.02-.25.07-.33.09-.03-.25-.06-.5-.09-.74-.07,0-.21.01-.28.02-.04-.29-.09-.57-.14-.86-.08.02-.25.05-.33.07-.01-.15-.04-.45-.05-.59-.08.02-.23.06-.31.08-.07-.4-.14-.79-.2-1.18-.08.01-.23.04-.31.06-.01-.16-.04-.47-.05-.62-.08.03-.24.09-.32.12-.01-.11-.03-.35-.05-.46-.12-.04-.35-.11-.46-.14,0-.16,0-.31-.02-.45,0-.28-.01-.55-.03-.81-.09-.03-.26-.09-.35-.12-.01-.14-.03-.41-.04-.55-.09-.02-.29-.06-.38-.09-.07-.45-.14-.89-.26-1.33.01-.25-.29-.61.01-.77l-.11.09c-.1-.42-.19-.84-.26-1.26-.06.01-.16.04-.22.06,0-.24-.01-.48-.02-.72-.59-.27-.47-.96-.44-1.46.01-.29.02-.59.02-.87-.04-.11-.13-.32-.17-.43-.05-.04-.13-.14-.18-.18-.06-.43-.1-.86-.05-1.29-.06-.96-.07-1.92-.06-2.88-.06.08-.16.24-.22.32-.27-.67-.15-1.4-.17-2.09-.02-4.67,0-9.33-.02-13.99.04-.32-.05-.82.44-.87,0,.15,0,.44.01.58M512.78,142.38c-.04,6.31,0,12.62-.02,18.93.08.33-.33.44-.6.41-1.95,0-3.9,0-5.85,0-.12-.03-.35-.08-.47-.11,0-6.41.01-12.81,0-19.22.12-.03.35-.08.47-.1,1.38,0,2.75,0,4.13,0,.78,0,1.57-.07,2.34.1M755.1,145.45c.67.04,1.29.28,1.91.5.06.06.17.17.22.22.24.04.47.08.7.14.35.3.82.37,1.23.55.54.23,1.03.57,1.58.78.5.5,1.17.77,1.75,1.16.7.54,1.3,1.22,2.08,1.67.08.12.15.24.22.37.64.37.98,1.04,1.52,1.53.22.35.45.72.82.94.03.17.06.35.09.53.08.03.25.08.33.1.21.37.4.75.56,1.14.07.04.22.12.29.16.06.21.11.43.16.66.08.04.23.13.31.17.02.39.15.76.42,1.06l.02.14c.48.27.53.8.58,1.29.06,0,.19.02.26.03.02.34.03.67.02,1.02.03.09.08.26.11.35.3.43.22.98.26,1.48.38.27.32.78.4,1.19.11,1.49.07,3,.03,4.49-.08.51,0,1.15-.43,1.54.08.71-.3,1.34-.34,2.03-.08.64-.41,1.23-.45,1.88-.1.07-.2.15-.3.24-.22.5-.43,1-.58,1.53-.09.02-.28.07-.37.1-.02.1-.06.3-.09.4-.08,0-.24.03-.32.04,0,.11-.03.34-.04.45-.07.06-.21.17-.28.23-.05.13-.1.27-.17.42-.08.37-.28.7-.48,1.03-.11.03-.33.07-.44.1-.1.25-.23.5-.38.74-.73.62-1.31,1.39-2.07,1.98-.82.66-1.55,1.46-2.51,1.95-1.4.88-2.83,1.81-4.49,2.16-.06.06-.18.17-.25.23-.47.09-.93.21-1.4.33.01.05.03.15.04.2-1.19.09-2.33.43-3.52.51-2.49.11-5.03.12-7.45-.53-.59-.29-1.28-.31-1.88-.6-2.4-.88-4.62-2.18-6.59-3.76-.05-.06-.14-.16-.18-.22-.81-.56-1.48-1.29-2.08-2.05-.36-.32-.72-.66-.87-1.12-.14-.15-.29-.3-.45-.45-.23-.2-.27-.5-.38-.76-.49-.15-.86-.6-.74-1.11-.06-.16-.11-.32-.18-.47-.7-.45-.42-1.48-1.04-2.02,0-.11-.03-.34-.03-.46-.64-.23-.42-.99-.54-1.5-.26-.29-.33-.66-.32-1.03,0-.22-.02-.44-.02-.64-.29-.26-.41-.64-.41-1.02-.04-1.5-.05-3.01,0-4.5.04-.46.03-1.01.42-1.34,0-.09,0-.28,0-.37-.05-.52.08-1.01.29-1.48.22-.44-.04-1.16.58-1.32,0-.12.02-.34.03-.46.55-.5.53-1.31.78-1.95.08-.04.25-.11.33-.14.05-.25.1-.49.14-.72.08-.04.24-.1.32-.14.01-.1.04-.3.06-.39.37-.44.68-.94,1.1-1.34.31-.81,1.16-1.26,1.5-2.05.21-.14.42-.27.63-.39.07-.14.14-.28.2-.41,1.31-.89,2.47-1.98,3.84-2.81.82-.36,1.57-.87,2.44-1.13,1.1-.44,2.17-1.04,3.39-1.08,1.27-.71,2.79-.68,4.2-.75,1.99,0,4.09-.07,5.94.77M586.46,145.52c.69.12,1.3.48,1.97.69.31.11.74.12.81.52,1.51.49,2.77,1.48,4.09,2.31.64.37,1,1.04,1.65,1.4.22.33.53.59.87.8.04.08.13.25.17.33.5.43.96.91,1.29,1.48.06.04.19.11.26.14.15.36.3.72.47,1.07.55.04.88.61.75,1.11.14.21.19.51.48.61.02.09.07.27.09.36.45.12.27.63.41.95.68.48.87,1.43.84,2.19,0,.1.02.31.02.4.09.01.28.04.37.06.05.51.12,1.03.24,1.55.23.87.16,1.77.18,2.66,0,1.22.02,2.44-.04,3.66-.09.7-.28,1.39-.37,2.1,0,.23-.23.29-.4.41-.04.39-.05.78-.09,1.18-.08.06-.26.17-.34.23,0,.2,0,.41,0,.62-.13.13-.28.28-.42.43-.02.23-.06.48-.1.73-.08.06-.23.18-.31.24-.02.1-.05.3-.07.4-.07.06-.21.16-.28.22-.2.4-.41.8-.6,1.22-.06.04-.18.12-.25.16-.16.36-.34.73-.53,1.09-.07.03-.2.09-.27.12-.39.7-.94,1.28-1.5,1.87-.06.03-.18.08-.23.1-.34.46-.78.84-1.24,1.2-1.18,1.21-2.72,2.01-4.17,2.88-.76.48-1.66.67-2.49,1.02-.95.37-1.91.77-2.95.86-1.92.47-3.92.38-5.88.36-1.27-.12-2.53-.34-3.79-.56-.53-.3-1.15-.39-1.74-.52-.06-.06-.19-.17-.25-.23-.79-.24-1.59-.49-2.29-.94-.63-.41-1.41-.6-1.92-1.18-.52-.21-.94-.59-1.42-.86-.08-.13-.17-.25-.26-.37-.19-.09-.39-.18-.59-.26-.05-.06-.14-.19-.19-.26-.56-.37-1.05-.85-1.31-1.47-.18-.1-.36-.2-.56-.29-.18-.48-.53-.86-.92-1.18-.06-.17-.13-.33-.22-.49-.43-.4-.75-.89-1.1-1.35-.02-.11-.05-.32-.07-.43-.07-.05-.22-.14-.3-.19-.01-.19-.03-.38-.06-.55-.08-.04-.25-.13-.33-.18-.12-.38.06-1.03-.48-1.12-.01-.19-.03-.38-.06-.56-.11-.11-.22-.21-.34-.31-.12-.44.09-1.11-.46-1.31-.02-.34-.03-.68-.07-1.01-.4-.1-.31-.53-.37-.82-.18-2.52-.13-5.04-.02-7.56-.08-.59.35-1.05.39-1.61.02-1.04.84-1.83.97-2.85.09-.02.28-.07.37-.09.04-.21.06-.41.07-.61.07-.06.2-.17.27-.23.12-.19.24-.36.35-.54.06-.17.11-.32.15-.47.18-.26.33-.53.46-.81.06-.04.17-.13.23-.18.14-.16.28-.32.41-.47.07-.15.13-.3.18-.44.23-.24.45-.47.68-.71.18-.37.51-.63.84-.85.66-1.02,1.74-1.68,2.68-2.43.55-.49,1.27-.74,1.78-1.27.76-.36,1.48-.8,2.3-1.02.04-.06.11-.18.14-.24.87-.4,1.76-.8,2.72-.95,1.03-.19,2.02-.58,3.07-.66,1.61-.15,3.23-.15,4.84-.05,1.31.09,2.54.53,3.82.76M629.52,169.69c.05.27.09.54.13.81-.12.02-.35.07-.47.09v.06c.04,1.12.01,2.24.02,3.36.03.51.07,1.02.1,1.54.08-.01.24-.04.32-.06,0,.15.02.45.03.6.08-.02.24-.05.32-.07.07.23.12.48.18.72.08.04.23.13.31.17.01.12.03.34.05.46.06-.01.18-.04.24-.05.25.18.56.31.65.64.21.02.4.06.59.1.33.53,1.11.37,1.65.48.5-.2,1.07-.07,1.6-.09,16.83,0,33.67,0,50.5,0,.64.02,1.3-.1,1.9.12.56-.03,1.13-.06,1.67-.23.4-.14.91-.21,1.03-.66.22-.07.44-.13.65-.18.07-.22.13-.43.19-.64.07,0,.2.03.27.04.01-.13.03-.38.04-.51.08,0,.24.02.32.02.06-.21.13-.41.19-.61v-.16c.05.02.17.06.24.08.02-.16.06-.49.08-.65-.04-1.73,0-3.47-.02-5.2.1,0,.31.03.41.04,7.51.02,15.01-.02,22.52.04,2.04.04,4.08-.13,6.11.09.02.5.04,1.01.05,1.52.09-.01.26-.03.35-.04.01.45.01.9.04,1.36.1,0,.3.01.4.02.03.35.07.7.11,1.06.55.15.31.83.4,1.24,0,.1.02.29.02.38.08-.02.26-.05.34-.07.02.28.04.57.06.86.09,0,.27,0,.36,0,.06.39.11.78.15,1.18.05,0,.16-.03.22-.04.02.12.05.37.07.49.08,0,.25,0,.33-.01.24.4.53.8.51,1.29.01.08.04.24.05.32.09-.02.27-.05.35-.07,0,.14.02.42.03.56.08-.01.23-.04.31-.05.05.22.09.45.16.68.5.08.78.55.82,1.01.12.12.24.25.36.38.17.23.32.47.45.72.36.09.39.45.5.74.08-.01.23-.04.3-.06.01.1.03.3.04.4.08-.01.23-.04.3-.06.1.27.13.65.53.58,0,.09.02.27.02.37.3,0,.48.17.52.45.08-.01.24-.04.32-.05,0,.08.01.23.02.3.3.18.57.41.86.61,0,.06,0,.17-.01.23.22.07.43.16.64.25.08.13.15.27.22.42.48.13.76.55,1.21.73v.18c.09-.02.25-.05.33-.07.09.22.17.44.25.68-26.94,0-53.88,0-80.82,0-4.19-.02-8.39.05-12.58-.06-2.01-.04-4.02.08-6.04.06-12.23,0-24.46,0-36.68,0,.02-.13.05-.39.06-.52.07,0,.2.03.27.04.17-.27.44-.44.61-.69.2-.08.41-.14.59-.2.11-.22.31-.37.51-.48.17-.26.52-.35.64-.64.07,0,.21.02.28.02,0-.09,0-.28,0-.38.08,0,.25.01.33.01.09-.26.18-.47.46-.5.11-.15.23-.29.34-.42.08-.23.28-.33.48-.41.02-.07.07-.22.1-.3.34.04.35-.24.4-.45.4.02.43-.31.48-.6.08.01.24.04.32.05.01-.14.03-.43.04-.57.07,0,.21.02.28.02l.12-.2c0-.51.44-.85.86-1.06.03-.1.07-.31.1-.42.07.01.21.04.28.05.17-.41.34-.82.48-1.23.08,0,.23.02.31.03.06-.29.1-.57.13-.85.08.02.25.05.34.06,0-.13,0-.39,0-.52.1-.05.3-.14.4-.19.04-.22.07-.44.1-.65.09,0,.26-.01.35-.02.03-.35.05-.68.06-1.02.09,0,.26.03.35.04.05-.32.09-.63.14-.93-.15-.45.31-.94.4-1.4.09-.02.28-.06.37-.07,0-.14.02-.43.02-.57.02-.4-.08-.92.42-1.07-.03-.84.46-1.61.37-2.46.13-.02.38-.05.5-.07-.06-.08-.18-.24-.24-.32,2.06-.05,4.12,0,6.18-.02,2.35-.04,4.71.15,7.06,0,2.35.02,4.71-.08,7.06.06M789.2,23.45c-1.77-.67-3.7-.58-5.56-.57h-52.39c-1.86.04-3.76-.17-5.58.31-.19.1-.39.19-.6.28-.1.01-.31.04-.41.05,0,.06,0,.18,0,.24l-.24-.14.02.22c-.19.05-.38.1-.57.15,0,.1,0,.29,0,.38-.07-.01-.22-.04-.29-.05-.04.25-.09.5-.14.76-.09-.02-.26-.05-.34-.07-.01.28-.04.56-.06.85-.5-.21-.31.36-.37.65,0,6.56,0,13.12,0,19.68,0,.23.01.46,0,.7.05-.02.16-.07.21-.09.09.36.18.72.24,1.09.08-.02.23-.05.31-.07.03.18.05.37.07.56.06,0,.19-.02.25-.02-.02.35.17.53.52.51,0,.08,0,.24,0,.32.08,0,.23-.03.3-.04.1.48.7.36,1.06.49.94.19,1.9.2,2.85.18,19.14,0,38.27,0,57.41,0,.93.03,1.86,0,2.76-.22.25-.05.48-.1.72-.14.12-.21.3-.32.55-.33.02-.05.04-.16.06-.21.07.03.22.09.3.12.07-.2.14-.4.21-.59.07.02.22.07.29.1.02-.1.05-.31.07-.41.08.02.26.07.34.09.06-.24.08-.48.07-.71-.06-7.57.05-15.14-.05-22.7-.01-.11-.04-.33-.05-.44-.08.02-.24.06-.32.07l-.07-.28c-.07.02-.21.07-.28.09-.06-.17-.13-.33-.2-.49-.36-.09-.71-.2-1.07-.31M783.15,31.39c.03.08.09.25.12.33h-.08c.05,3.12.03,6.24,0,9.36h.1c-.06.07-.18.18-.24.24-16.87.04-33.73,0-50.6.02-.33-.02-.72,0-.97-.25-.13-1.11-.02-2.22-.06-3.33.03-2.07-.07-4.14.06-6.21.31-.11.64-.21.97-.2,12.06,0,24.13,0,36.19,0,4.84.02,9.67-.05,14.51.04M615.73,72.98c-2-.19-4.01-.09-6.02-.12h-65.33c-1.88.01-3.77-.06-5.65.12.02.05.08.16.1.21-.34.04-.7.08-1.06.12v.17c-.23,0-.48,0-.73,0v.34c-.09-.01-.27-.04-.36-.05,0,.06,0,.17-.01.22-.26.05-.53.12-.81.17-.06.16-.13.32-.2.49-.08-.02-.24-.06-.33-.09v.27c-.08,0-.25-.01-.33-.02-.04.31-.18.53-.53.48,0,.09,0,.27,0,.37-.08-.01-.23-.04-.31-.05-.04.12-.11.35-.15.47l-.05.12c-.18.38-.32.78-.46,1.18-.09.02-.26.06-.34.09,0,.17-.03.51-.03.68-.06-.02-.17-.07-.23-.09-.12,1.77-.05,3.54-.07,5.31v16.16c.01,1.54-.04,3.08.1,4.62.06-.02.18-.07.24-.1,0,.17,0,.53-.01.7.1.02.29.05.4.07.06.32.13.64.19.97.06.07.18.2.24.27l.02.15c0,.08.02.26.02.34.1,0,.29.02.39.03.17.28.33.55.49.84.03.05.09.16.12.21.07-.02.22-.05.29-.07,0,.11.03.32.04.43.07-.02.22-.07.29-.09.06.08.19.25.25.33-.02.04-.05.11-.06.15.44.07.86.22,1.26.4l-.09.13c.84.14,1.69.2,2.53.16,1.84-.13,3.7-.01,5.54-.05,23.3,0,46.6,0,69.9,0,0,.08.01.23.01.3.11,0,.34-.01.45-.02.22-.01.43-.02.63-.02-.03-.06-.08-.17-.1-.23.37-.05.72-.09,1.07-.11l-.04-.18c.25,0,.5,0,.74,0,0-.07,0-.2,0-.26.29-.04.58-.07.86-.09-.02-.04-.05-.13-.07-.17.07-.08.2-.25.27-.33.07.03.22.08.29.11,0-.1.01-.3.02-.4.08,0,.24.01.32.02,0-.07.01-.21.02-.28.34.02.5-.12.5-.44.06.02.17.08.23.1l-.09-.24.22.04c0-.1,0-.3.01-.4.08.03.24.08.32.1.05-.26.1-.52.14-.77.06.02.17.06.22.08.14-.45.23-.91.27-1.37.06.22.17.65.22.87.18-4.03.05-8.07.09-12.11,0-4.83,0-9.65,0-14.47-.09,0-.26.02-.34.03-.01-.64-.05-1.28-.09-1.91-.09-.01-.28-.05-.37-.06-.51-.49-.96-1.04-1.31-1.65,0-.08-.02-.25-.03-.33-.08,0-.24,0-.32,0,0-.09-.02-.28-.02-.38-.08.02-.23.06-.31.08-.01-.48-.57-.41-.92-.54-.02-.05-.06-.15-.08-.2l-.18.04c-.1-.06-.3-.18-.4-.23v-.16c-.08.03-.25.09-.33.12l.02-.21c-.42-.04-.84-.11-1.28-.16.03-.05.07-.15.1-.2M613.16,81.7c.02,5.72,0,11.45,0,17.17,0,.72.05,1.45-.08,2.16.02.05.07.16.09.21-3.56.06-7.13,0-10.69.03h-58.95c-.77,0-1.57.08-2.31-.2-.05-6.44,0-12.89-.03-19.33.11-.01.34-.04.45-.06,23.69.01,47.38,0,71.07,0h.43M674.31,112.38c-.98-.39-1.98-.8-3.06-.79-.86,0-1.75-.07-2.59.15-.67.16-1.32.38-1.98.56-.36.31-.75.6-1.16.86-.11.27-.15.64-.54.68-.05.64-.04,1.28,0,1.93.11,0,.32.02.43.02,0,.12.01.36.02.48h.32c.13.24.29.47.46.7.12,0,.35.01.47.02,0,.07,0,.2-.01.26.33.06.66.15.97.29,1.34.39,2.76.42,4.14.31.97-.04,1.91-.38,2.75-.84.5-.24.82-.71,1.31-.97.01-.11.04-.33.05-.44.05-.56.04-1.11,0-1.67,0-.13-.02-.38-.03-.51-.08,0-.23,0-.31.01-.17-.55-.79-.76-1.24-1.05M734.05,112.21c-.44-.07-.87-.17-1.3-.29-.73,0-1.46,0-2.19,0-1.04-.03-2.05.23-3.08.29-.33.02-.62.17-.93.28-.05.36-.37.5-.67.66-.05-.02-.15-.06-.21-.08-.08.35-.17.7-.24,1.06-.07-.02-.22-.07-.3-.09,0,.48,0,.96,0,1.45.08-.02.23-.07.31-.09.04.28.09.55.13.84.1,0,.29-.02.39-.03,0,.08.03.24.04.32.07-.03.2-.08.26-.11,0,.53.5.59.93.69-.01.07-.04.19-.05.26.14,0,.41,0,.55,0,0,.04,0,.13,0,.18,1.77.4,3.6.4,5.4.2l-.06-.16c.3-.01.59-.02.88-.02,0-.06,0-.19.01-.25.12,0,.37,0,.49,0-.02-.06-.06-.19-.07-.25.27-.06.52-.11.78-.15.07-.17.13-.34.19-.5.08.02.24.05.33.06v-.28c.09,0,.28,0,.38,0,0-.12.02-.34.03-.46.06-.71.04-1.42-.03-2.12l-.02-.32c-.09,0-.29.01-.38.02,0-.08.03-.24.04-.32-.31,0-.53-.13-.57-.44-.07.02-.22.06-.3.08l-.03-.29c-.08.03-.25.09-.34.12,0-.05,0-.16,0-.22-.09-.01-.27-.04-.37-.05M618.6,114.95c-.54-.07-1.09-.18-1.64-.17-2.35,0-4.71,0-7.07,0-.56-.01-1.13.1-1.68.2-.25.04-.5.1-.76.16,0,.31-.32.28-.57.35,0,.08.01.23.01.3-.1,0-.29.01-.39.01-.03.08-.1.24-.13.32-.12.28-.26.56-.4.85-.09,0-.28.03-.37.04-.02.25-.07.51-.11.77-.08-.02-.24-.06-.32-.08-.05,3.41-.06,6.83,0,10.24.09-.02.26-.06.34-.07.04.24.07.49.1.74.07,0,.21-.02.29-.02.31.39.55.86,1,1.12.91.52,1.9,1.03,2.99.91,2.91-.09,5.84.15,8.74-.14.23-.03.45-.06.67-.08l-.06-.18.24.05-.04-.25c.08.02.23.06.31.08l.12-.17c.18-.24.37-.47.56-.69.42-.35.69-.81.82-1.32.12-.13.25-.26.35-.38.11-1.79.03-3.58.05-5.37-.02-1.6.08-3.2-.13-4.79-.08.02-.24.07-.32.09-.01-.3-.03-.59-.06-.88-.07,0-.22.03-.29.04-.03-.45-.58-.46-.6-.9-.06.01-.18.04-.24.06-.07-.44-.56-.44-.91-.55.01-.05.04-.16.05-.22-.14-.02-.42-.06-.56-.08M583.22,115.12c-.38-.08-.77-.16-1.16-.21v-.13c-3.22-.02-6.44-.02-9.67,0v.13c-.4.06-.81.15-1.23.22.02.06.07.19.09.25-.14.02-.43.06-.58.08,0,.07.02.22.02.29-.32-.01-.53.11-.52.47-.09,0-.27,0-.36,0v.33c-.08-.03-.23-.09-.31-.12-.04.34-.08.68-.13,1.03-.06-.02-.19-.05-.25-.07-.24,1.81-.08,3.63-.13,5.45.03,1.7-.07,3.41.09,5.11.06-.02.17-.07.23-.09.06.36.13.73.18,1.11.08-.03.23-.09.3-.12.01.11.04.33.05.45.08-.02.23-.06.31-.08.07.19.13.39.18.59.08-.02.24-.07.32-.09l.03.23c.07,0,.21-.02.28-.03l.09.03c.76.26,1.48.71,2.31.65,2.89-.03,5.77.04,8.66-.04.9-.41,1.81-.84,2.43-1.61.17-.23.33-.46.47-.69.05-.15.09-.3.13-.43.07.02.22.07.29.1.21-2.02.07-4.06.11-6.09-.01-1.48.06-2.98-.13-4.45-.08.02-.24.07-.32.09-.01-.26-.03-.52-.05-.77-.08.02-.23.07-.3.09-.05-.24-.12-.48-.19-.71l-.33.1c0-.11-.03-.34-.04-.46-.07.02-.21.05-.28.06-.11-.31-.49-.38-.61-.68M546.22,114.97c-1.22-.28-2.48-.17-3.72-.18-1.67,0-3.33,0-5,0-.55-.01-1.1.09-1.65.18-.29.05-.59.11-.9.16.02.06.07.19.09.25-.14.02-.43.05-.58.07,0,.07.02.22.03.29-.29,0-.51.09-.53.42-.21.03-.35.14-.43.35-.06-.02-.17-.06-.23-.08-.04.34-.09.69-.15,1.04-.06-.02-.18-.06-.24-.07-.24,1.97-.08,3.97-.13,5.95.02,1.54-.06,3.09.08,4.63.06-.02.17-.06.23-.08.07.36.14.73.19,1.1.08-.03.23-.08.3-.11.01.11.04.34.06.45.07-.03.22-.07.29-.1.06.3.11.64.52.58v.14s.14-.03.14-.03c.19.12.37.24.44.45.75.21,1.51.4,2.3.38,2.76-.02,5.53.03,8.29-.02l.09-.05c.89-.5,1.91-.86,2.54-1.7.16-.24.33-.47.52-.68.03-.2.05-.4.07-.59.09.04.26.12.34.16.16-1.89.05-3.78.08-5.67-.02-1.59.08-3.19-.12-4.78-.08.02-.24.07-.32.09,0-.26-.03-.52-.05-.77-.07.02-.22.07-.29.1-.1-.3-.08-.79-.56-.69,0-.07.02-.22.03-.29-.23-.04-.48-.09-.56-.34-.2-.06-.32-.17-.35-.36-.27-.05-.53-.12-.81-.16M755.91,156.34c-2.44-1.26-5.3-2.07-8.06-1.42-1.38.24-2.62.89-3.9,1.43-.05.02-.16.06-.22.08-.57.45-1.14.9-1.71,1.36-.07.12-.15.24-.23.37-.39.32-.6.79-.97,1.15-.03.09-.08.27-.11.37-.19.57-.55,1.08-.74,1.66-.16.47-.28.98-.57,1.41-.07.06-.21.18-.28.24-.15,1.33-.13,2.68-.02,4.01.08.07.24.19.32.26.01.27.01.55.01.83.08,0,.24,0,.32,0,.05.47.07.94.21,1.4.07.03.22.1.29.14.02.09.06.26.08.35.43.15.39.64.52.99.32.23.56.53.73.87,1.1,1.14,2.44,2.04,3.83,2.83.8.21,1.57.49,2.37.69,1.2.13,2.42.07,3.63.06.78.02,1.49-.34,2.22-.53.42-.11.84-.23,1.24-.4.57-.45,1.22-.8,1.8-1.24.54-.43,1.22-.78,1.44-1.47.21-.14.42-.27.63-.4.06-.2.11-.4.16-.59.07-.02.21-.07.28-.09.22-.55.45-1.09.74-1.59.03-.12.08-.38.11-.5.27-.75.45-1.52.42-2.31-.01-1.6.19-3.26-.43-4.79-.03-.23-.06-.45-.08-.67-.08-.04-.24-.14-.33-.18-.01-.22-.03-.43-.05-.63-.08-.05-.23-.14-.3-.18-.01-.1-.03-.31-.04-.41-.11-.1-.22-.21-.33-.3-.15-.4-.47-.69-.81-.94-.2-.36-.49-.66-.84-.88-.44-.33-.85-.72-1.35-.97M751.18,162.82c.22.22.5.35.78.49.13.25.24.52.4.76.2.89.18,1.87-.36,2.65-.61.46-1.34.9-2.15.84-.52,0-1-.25-1.46-.46-.02-.05-.07-.16-.1-.21-.53-.09-.83-.58-.87-1.06-.04-.63-.02-1.27.06-1.89.09-.01.27-.04.36-.05.02-.1.05-.3.07-.4.27-.22.52-.44.76-.67.81-.36,1.71-.29,2.51.01M582.82,154.97c-3.44-.87-7.2.31-9.81,2.54-.72.72-1.2,1.63-1.91,2.36v.03c-.19.54-.44,1.07-.81,1.52-.02.11-.06.32-.08.43-.68,1.74-.28,3.64-.37,5.45,0,.13,0,.4-.01.54.09.05.28.14.37.19.02.25.04.51.04.78.09.02.27.07.36.09.14.48.31.97.49,1.44.03.08.09.23.12.31.12.08.22.16.32.25.01.11.04.32.05.42.09.02.28.06.37.08.04.1.11.31.14.4.74.64,1.36,1.42,2.23,1.91.97.54,1.93,1.21,3.07,1.32,1.07.05,2.11.37,3.19.36,1.36,0,2.65-.51,4-.64.27-.04.49-.18.7-.31.76-.5,1.5-1.02,2.24-1.53.43-.28.82-.62,1.18-.97.03-.07.09-.21.12-.29.19-.09.34-.21.38-.41.16-.53.47-.98.83-1.4.04-.06.13-.17.17-.23.06-.02.18-.05.24-.07.06-.53.27-1.02.34-1.53-.05-1.33.34-2.65.12-3.97-.12-.81-.07-1.66-.44-2.41-.19-.4-.34-.82-.4-1.26-.04-.29,0-.65-.39-.72-.01-.1-.05-.3-.06-.4-.08-.04-.24-.12-.33-.16-.04-.1-.12-.31-.16-.41-.27-.24-.52-.49-.79-.73-.54-.47-1.11-.92-1.68-1.35-1.11-.84-2.47-1.31-3.83-1.63M581.6,162.77c.27.15.53.32.79.49.03.07.1.22.14.29.86.45,1.06,1.69.56,2.47-.13.17-.26.67-.56.48-.03.07-.09.2-.12.26-.43.31-.87.69-1.46.65-.97.11-2.03-.12-2.66-.89-.01-.1-.04-.31-.05-.42-.09-.04-.27-.13-.36-.17-.02-.63-.01-1.25.02-1.87.09-.05.27-.15.37-.2.02-.09.05-.28.06-.38.35-.24.69-.5,1.06-.7.61-.39,1.39-.18,2.07-.18.04.04.12.13.15.17M894.18,160.9c-.56-.3-1.18-.43-1.81-.33-.17.11-.33.22-.51.34-.22.28-.63.38-.62.82-.08,0-.23-.03-.3-.04,0,.13-.02.38-.03.5-.41,0-.41.38-.5.68-.08,0-.24,0-.32,0-.01.34-.03.68-.05,1.03-.09,0-.26-.02-.35-.02-.01.26-.04.52-.09.78-.16.65-.44,1.28-.4,1.97v21.99c.02,1.32-.15,2.68.37,3.93.06.24.1.5.14.76.48-.06.31.44.37.72.07.02.22.04.29.06.08.41.37.73.62,1.07.25.15.51.3.77.43.01.06.04.17.05.23.64.3,1.38.27,2.02,0,.01-.08.04-.24.05-.33.07.01.22.04.29.06.09-.25.28-.37.54-.39,0-.12.02-.37.03-.5.08.02.25.05.34.07.05-.24.1-.47.14-.7.08,0,.25.02.33.03.04-.35,0-.75.34-.97.03-.26.05-.52.07-.77.08.02.23.05.31.07.22-1.81.11-3.63.13-5.45v-16.65c-.01-1.86.06-3.73-.12-5.59-.08,0-.23.03-.3.04-.02-.4-.09-.78-.28-1.13-.08-.31-.12-.63-.16-.94-.07.02-.23.06-.3.08-.04-.28-.09-.57-.14-.84-.09,0-.28,0-.37,0,0-.12,0-.36,0-.48-.32-.03-.42-.3-.54-.54M432.39,160.56c-.4-.03-.82-.04-1.22.08-.26.16-.59.27-.7.59-.07,0-.2-.01-.27-.02-.05.26-.1.52-.16.78-.08,0-.23.01-.31.01-.04.3-.1.64-.44.77-.05.37-.09.74-.13,1.12-.06-.01-.18-.04-.24-.06.01.28,0,.57-.01.87-.48,1.77-.29,3.61-.33,5.42,0,6.77,0,13.54,0,20.31,0,.7.27,1.36.35,2.06.02.24.03.48.03.73.06-.01.18-.04.24-.05.04.26.07.54.09.82.33,0,.4.23.41.49.09.05.27.14.35.19.05.16.09.32.12.5.27.12.53.25.79.39.02.08.07.24.09.32.06,0,.18-.02.24-.03.41.29.96.21,1.41.1.18-.11.34-.24.46-.38.24-.14.48-.27.71-.38.04-.18.07-.35.09-.52.08.01.24.05.33.06.01-.11.04-.32.06-.43.07.02.22.07.3.09.06-.37.13-.73.18-1.08.08.01.25.04.33.05.02-.29.05-.59.05-.87.08.01.26.03.34.04.02-.3.05-.59.05-.88.03-8.63.03-17.26,0-25.88,0-.35-.04-.7-.06-1.04-.08,0-.25.01-.34.02,0-.31-.03-.59-.04-.88-.09.02-.26.05-.35.07,0-.11,0-.35,0-.46l-.41-.17c-.09-.31-.18-.61-.3-.91-.11-.29-.21-.57-.32-.86-.08,0-.23.02-.31.03,0-.08,0-.25,0-.34-.25-.04-.44-.16-.54-.4-.18-.09-.36-.19-.55-.28M871.39,174.43c-.56-.26-1.19-.26-1.79-.21-.14.17-.3.32-.53.38-.01.07-.04.22-.06.29-.09-.01-.27-.04-.35-.05-.04.3-.07.6-.11.91-.05-.02-.15-.06-.2-.08-.26,1.29-.21,2.62,0,3.92l.18-.08c.02.45.07.91.12,1.36.09.05.26.15.35.2.06.26,0,.65.39.68.1.31.04.78.49.81.02.17.03.34.04.52.08-.01.23-.04.31-.06.06.29.11.59.17.9l.22-.09c.04.23.08.47.11.71.09,0,.27,0,.36,0,.01.23.02.46.02.7.09,0,.27,0,.35,0,.05.2.09.42.13.64.55-.05.32.58.41.9.08-.02.23-.07.3-.09.06.23.12.47.17.71.08-.01.25-.04.33-.06.02.24.03.49.04.74.08-.01.23-.04.31-.05.06.23.11.46.17.71.08.04.25.13.33.17.06.23.13.46.19.7.05-.02.17-.06.22-.08.04.24.07.48.11.74l.21-.1c.07.29.13.58.18.88.08,0,.24-.02.32-.02,0,.14,0,.41,0,.55.09,0,.28.02.38.02.04.22.08.44.11.66.05-.03.14-.08.18-.11.12.35.19.75.57.94.06.16.1.33.15.51.08-.02.23-.06.3-.08.01.07.03.22.04.3.28.07.43.29.55.53.22.11.44.22.65.34.11.14.21.28.31.43.52.17,1.02.39,1.48.69.18.06.36.13.53.2.52.01,1.12.2,1.57-.12.05,0,.15,0,.2,0,.09-.23.25-.4.52-.4.02-.08.05-.25.06-.33.08.02.24.05.32.07.09-.77.18-1.54.17-2.32.11-.04.32-.13.43-.18-.11,0-.33.01-.44.01,0-.69-.04-1.37-.08-2.05-.1-.06-.29-.17-.39-.23-.06-.43-.13-.86-.19-1.28-.05.02-.15.06-.21.08-.05-.3-.1-.59-.15-.88-.08,0-.25.02-.34.03v-.5c-.12-.1-.23-.19-.36-.28,0-.15,0-.3,0-.44-.08,0-.26.03-.34.04-.04-.28-.08-.57-.13-.84-.09,0-.28.01-.38.02,0-.24-.02-.47-.03-.7-.09,0-.26,0-.35,0-.04-.29-.09-.56-.14-.84-.09.01-.27.03-.36.04,0-.14,0-.41,0-.54-.08.01-.26.03-.34.04-.04-.29-.07-.58-.12-.86-.09,0-.28.02-.38.02-.01-.24-.03-.47-.04-.7-.08,0-.24.01-.32.02-.13-.58-.33-1.21-.84-1.59,0-.1-.01-.29-.02-.39-.49-.02-.38-.58-.52-.9-.08.01-.25.04-.33.05-.01-.24-.02-.48-.04-.72-.08.02-.24.05-.32.07-.05-.31-.12-.62-.18-.92-.08.02-.25.06-.33.08,0-.14-.02-.43-.03-.57-.08,0-.23.03-.3.04-.04-.48-.39-.8-.62-1.18-.08,0-.23,0-.31,0,0-.12-.01-.36-.02-.48-.08,0-.24.03-.31.04-.01-.09-.04-.26-.05-.35-.26,0-.42-.11-.48-.34-.32-.19-.65-.37-.9-.64-.44-.25-.92-.42-1.36-.66M455.69,174.59c-.49-.5-1.24-.38-1.89-.38-.05.07-.16.23-.22.3-.18.01-.36.04-.56.07-.38.26-.94.33-1.15.78-.2.09-.41.19-.63.29-.05.27-.24.43-.54.43,0,.06,0,.18,0,.25-.18.06-.32.18-.42.35-.28.15-.37.45-.46.74-.07-.01-.23-.04-.3-.06-.01.14-.03.43-.04.57-.08,0-.24-.03-.32-.04-.05.29-.12.59-.18.89-.07-.02-.21-.06-.28-.08-.07.28-.16.56-.25.85-.06,0-.19-.02-.26-.03,0,.13,0,.41-.01.54-.09,0-.28,0-.37-.01-.01.14-.04.42-.05.56-.08-.03-.23-.08-.3-.1-.05.36-.12.72-.18,1.09l-.24-.08c-.03.23-.07.48-.11.73-.08-.02-.24-.05-.32-.07,0,.24-.02.48-.05.73-.08-.02-.25-.05-.34-.07-.03.25-.08.5-.13.76-.09-.01-.26-.04-.35-.06-.01.27-.02.53-.05.82-.09,0-.27.01-.36.02-.03.22-.07.45-.12.68-.09,0-.26-.03-.34-.04,0,.13,0,.39-.01.52-.09.04-.26.11-.35.15-.04.25-.08.49-.13.75-.09-.01-.27-.05-.35-.06,0,.14-.02.41-.02.55-.08,0-.24-.03-.33-.04-.03.28-.05.56-.11.85-.06,0-.19-.03-.26-.04-.04.28-.09.56-.15.85-.09-.01-.26-.03-.34-.04,0,.23-.01.48-.03.73-.09,0-.27-.01-.35-.02-.01.12-.03.36-.04.48-.51,1.8-.77,3.81-.02,5.59.03.07.08.21.11.28.08-.01.24-.04.31-.06.01.08.03.25.04.33.83.33,1.94.35,2.63-.23.28-.07.54-.11.76-.26.17-.1.33-.2.48-.3.05,0,.14,0,.19,0,.21-.28.42-.55.61-.83.23-.08.44-.15.64-.22.08-.23.15-.44.21-.66.07.02.22.06.29.08.01-.1.04-.31.05-.41.08.01.25.04.33.06.06-.31.12-.61.16-.91.07.02.21.06.28.08.06-.28.04-.65.44-.61.01-.15.04-.45.06-.6.05,0,.16,0,.22.01.13-.37.3-.73.54-1.04.01-.12.04-.36.05-.48.08.02.23.06.31.08.07-.35.14-.7.2-1.05.08.01.23.04.31.05,0-.1.02-.32.03-.42.08.01.24.03.32.04.06-.33.12-.66.17-.97.09,0,.28-.02.38-.02-.01-.08-.04-.23-.05-.31.58-.09.43-.78.57-1.18.08,0,.24,0,.32,0,0-.1,0-.3-.01-.4.09-.01.27-.03.36-.04.06-.26.1-.51.14-.76.34.02.37-.25.39-.49.11-.14.22-.26.32-.39,0-.12.01-.37.02-.49.08.01.24.03.32.04.05-.28.11-.56.14-.83.09,0,.27.01.37.02.02-.25.03-.49.03-.72.09,0,.26.02.34.02.02-.15.07-.46.1-.61.26-.47.44-.98.39-1.52-.02-.87.25-1.73.12-2.6-.09-.67-.2-1.35-.23-2.02-.14-.12-.28-.25-.41-.38M910.55,184.52c-.92-.23-1.86-.14-2.79-.02.01.05.04.17.05.22-.27.04-.55.1-.83.16-.25.2-.52.36-.81.51-.07.23-.3.25-.51.31-.02.08-.06.25-.08.34-.09-.01-.26-.03-.35-.04,0,.1,0,.29.01.39-.1,0-.3,0-.4,0-.04.21-.09.42-.13.65-.08,0-.25-.02-.33-.03,0,.14,0,.41,0,.55-.09.01-.27.04-.35.05-.12.29.02.89-.49.8-.01.21-.02.43-.04.66-.08-.01-.23-.04-.31-.05-.13.68-.52,1.31-.44,2.03,0,1.14-.03,2.27,0,3.41.02.18.03.36.05.55.14.17.27.36.4.55.07-.01.22-.04.29-.05,0,.08.02.25.02.33.68.27,1.44.29,2.14.09.54-.26,1.04-.6,1.62-.76l.02-.1c.35-.12.5-.51.87-.6,0-.06,0-.18,0-.24.26-.04.46-.16.54-.39.07.01.21.03.28.05.02-.1.05-.3.06-.4.07.02.21.06.27.09.13-.29.06-.82.54-.74.02-.21.03-.42.05-.61.08-.06.23-.17.3-.23,0-.12.03-.36.04-.48.08.02.25.07.33.09.07-.36.13-.71.19-1.06.08.01.24.03.32.04.01-.25.02-.49.03-.73.09.01.26.04.35.06.02-.26.05-.52.06-.77,0-1.05.02-2.11,0-3.16,0-.22-.02-.44-.04-.65-.09.02-.27.05-.36.07-.01-.12-.03-.35-.04-.47-.25-.04-.5-.1-.53-.38M416.79,184.44c-.81-.06-1.65-.15-2.45.09-.14.15-.29.29-.51.37-.03.07-.1.21-.13.28-.73,1.3-.37,2.84-.33,4.25.12.11.22.22.31.34l.02.14c.05.26.08.54.1.81.08-.01.24-.05.33-.06.02.24.04.48.05.72.07-.02.22-.06.3-.08.14.52.39,1,.55,1.51.34,0,.35.31.4.55.06-.02.18-.05.24-.07.07.47.47.72.88.91.23.42.73.6,1.05.95.35.14.68.28,1.02.41.04.06.12.18.16.24.72.17,1.48.34,2.21.15.16-.13.3-.24.44-.36.24-.18.5-.36.56-.66.25-1.14.45-2.35.15-3.5-.03-.45-.05-.9-.13-1.34-.08-.17-.16-.34-.25-.51-.01-.12-.03-.34-.04-.46-.08.02-.24.05-.32.07-.04-.3-.1-.6-.16-.89-.09.01-.26.04-.34.06,0-.25-.01-.49-.03-.72-.09,0-.27.01-.37.01-.03-.29-.08-.56-.13-.84-.07.01-.23.04-.3.05.01-.33-.11-.56-.48-.53-.02-.09-.06-.26-.08-.35-.13-.1-.27-.19-.42-.27-.69-.52-1.44-1.04-2.36-1.07.01-.06.03-.16.05-.22M863.12,189.37c-.45-.23-1.08-.2-1.39-.64-1.72-.15-3.45-.05-5.18-.08-7.47,0-14.95-.01-22.42,0-.62.07-1.43,0-1.87.49-.33.06-.67.13-1.01.2.01.06.03.19.04.25-.27.07-.55.16-.81.27-.2.37-.61.54-.99.69-.03.16-.05.32-.08.49-.08-.02-.25-.04-.33-.06,0,.12-.03.37-.03.5-.69.17-.28,1.06-.35,1.56.09-.02.26-.05.34-.07,0,.14.03.43.03.57.08,0,.23.01.31.02.06.29.17.55.53.51,0,.06.02.19.03.25.23.05.42.16.56.35.05,0,.15-.01.2-.02.2.16.39.32.58.48.32.08.64.18.95.31.1.02.3.06.4.08.15.08.29.17.43.26.59.09,1.18.25,1.78.24,8.04,0,16.08,0,24.12,0,1.03-.01,2.12.08,3.09-.35.06,0,.18.01.25.02l.04-.15c.53-.15,1.04-.34,1.54-.56.03-.07.1-.21.13-.27.25-.13.5-.26.75-.37.05-.18.09-.36.14-.54.08.02.25.05.33.07.02-.25.04-.49.06-.72.08.02.26.05.34.07,0-.47,0-.94-.01-1.4-.08.01-.26.04-.34.06-.01-.24-.02-.48-.04-.72-.08.01-.25.04-.34.05-.05-.22-.09-.45-.15-.66-.39-.13-.77-.33-.9-.74-.09,0-.19.02-.3.05v-.15c-.19-.08-.33-.2-.42-.37M470.17,188.69c-1.52-.07-3.04-.04-4.56-.04-.68,0-1.38-.04-2.04.15-.29.1-.58.2-.88.31-.3.14-.63.22-.98.28,0,.05.02.15.03.2-.37.11-.67.37-.94.64-.05,0-.15-.03-.21-.04-.07.26-.29.36-.56.38,0,.12-.02.37-.02.49-.09-.02-.28-.05-.37-.06-.01.22-.03.44-.05.66-.01.46,0,.92.02,1.38,0,.14.02.42.03.56l.36-.08c.01.12.04.35.05.46.26.02.49.09.5.39.21.07.41.14.61.21.2.19.4.38.61.57.34.05.67.13.94.32.22.01.42.03.62.06.05.07.14.2.19.27,1.55.36,3.14.22,4.71.25.63-.02,1.29.04,1.89-.17.28-.04.53-.06.79-.07,0-.07,0-.22,0-.29.13,0,.38,0,.5.01l.04-.14c.4-.12.78-.27,1.15-.42.01-.08.04-.24.05-.32.08.02.24.06.32.08.08-.2.15-.39.21-.57.06.02.19.07.25.1.09-.2.18-.39.26-.57.05.01.16.04.22.05,0-.12,0-.38,0-.5.01-.41.01-.81,0-1.22,0-.28-.02-.55-.04-.82-.09,0-.28.02-.37.03,0-.14-.01-.41-.02-.55-.07,0-.22.02-.29.03-.07-.27-.3-.36-.56-.39,0-.06,0-.17.01-.23-.27-.18-.55-.36-.86-.49,0-.05.02-.16.02-.21-.35-.1-.71-.2-1.03-.38-.18-.07-.38-.12-.58-.17v-.13"/>
  <path class="cls-1" d="M680.42,89.54c-3.11-.08-6.23,0-9.35-.03-9.61,0-19.22-.02-28.82.01-.08,1.73,0,3.46-.03,5.19,0,13.82,0,27.63,0,41.45.02,8.4-.04,16.8.03,25.2,11.97.03,23.94,0,35.91.02.74,0,1.49.05,2.22-.08.15-.65.09-1.32.08-1.98,0-14.54,0-29.09,0-43.63-.02-8.72.04-17.43-.03-26.15M674.31,112.38c.45.29,1.07.5,1.24,1.05.08,0,.23,0,.31-.01,0,.13.02.38.03.51.1.02.31.06.41.08.05.5.05,1.01,0,1.53-.11.02-.32.05-.42.06-.01.11-.04.33-.05.44-.49.25-.81.73-1.31.97-.84.46-1.78.8-2.75.84-1.38.1-2.8.08-4.14-.31-.31-.13-.63-.22-.97-.29,0-.07,0-.2.01-.26-.12,0-.36-.01-.47-.02-.17-.22-.33-.45-.46-.7h-.32c0-.12-.01-.36-.02-.48-.11,0-.32-.02-.43-.02-.03-.64-.04-1.29,0-1.93.38-.03.43-.41.54-.68.41-.26.8-.55,1.16-.86.66-.18,1.31-.4,1.98-.56.85-.22,1.73-.15,2.59-.15,1.08,0,2.08.4,3.06.79"/>
  <path class="cls-2" d="M512.78,142.38c-.76-.17-1.55-.1-2.34-.1-1.38,0-2.75,0-4.13,0-.01,6.48-.01,12.96,0,19.44,1.95,0,3.9,0,5.85,0,.27.03.68-.07.6-.41.01-6.31-.03-12.62.02-18.93M755.1,145.45c-1.48,0-2.92-.39-4.39-.48-1.94-.2-3.82.43-5.75.47-1.22.04-2.29.64-3.39,1.08-.87.25-1.61.77-2.44,1.13-1.36.82-2.52,1.92-3.84,2.81-.06.13-.13.26-.2.41-.21.12-.42.25-.63.39-.34.79-1.18,1.24-1.5,2.05-.41.41-.72.9-1.1,1.34-.01.1-.04.3-.06.39-.08.03-.24.1-.32.14-.04.23-.09.48-.14.72-.08.03-.25.11-.33.14-.25.64-.23,1.45-.78,1.95,0,.11-.02.34-.03.46-.13.96-.23,2.01-.87,2.8,0,.09,0,.28,0,.37.03.78.03,1.56,0,2.34-.07,1.51.08,3.01,0,4.52,0,.2.02.42.02.64.68.65.76,1.65.86,2.53,0,.12.03.34.03.46.63.53.34,1.57,1.04,2.02.06.15.12.31.18.47.33.31.64.66.74,1.11.1.26.15.56.38.76.16.14.31.29.45.45.14.47.51.8.87,1.12.6.76,1.27,1.49,2.08,2.05.05.06.14.16.18.22,1.97,1.59,4.2,2.88,6.59,3.76.6.29,1.29.3,1.88.6,2.43.65,4.96.64,7.45.53,1.19-.08,2.34-.43,3.52-.51-.01-.05-.03-.15-.04-.2.47-.12.93-.24,1.4-.33.06-.06.18-.17.25-.23,1.66-.35,3.09-1.28,4.49-2.16.96-.49,1.68-1.29,2.51-1.95.76-.59,1.34-1.36,2.07-1.98.15-.24.28-.49.38-.74.13-.5.52-.83.91-1.13.07-.15.12-.28.17-.42.07-.06.21-.17.28-.23.01-.11.03-.34.04-.45.08,0,.24-.03.32-.04.02-.1.07-.3.09-.4.33-1.21,1.13-2.25,1.37-3.5.09-.06.25-.18.34-.24.05-.69.42-1.33.34-2.03.04-2.41.04-4.81,0-7.22-.03-.5.04-1.05-.26-1.48-.03-.09-.08-.26-.11-.35-.54-.67-.75-1.51-.86-2.33l-.02-.14c-.27-.3-.4-.67-.42-1.06-.08-.04-.23-.13-.31-.17-.05-.23-.1-.45-.16-.66-.07-.04-.22-.12-.29-.16-.16-.39-.35-.77-.56-1.14-.08-.02-.25-.07-.33-.1-.02-.18-.05-.36-.09-.53-.38-.22-.61-.59-.82-.94-.53-.49-.87-1.15-1.52-1.53-.07-.13-.14-.26-.22-.37-.78-.45-1.38-1.12-2.08-1.67-.59-.38-1.26-.66-1.75-1.16-.55-.22-1.04-.55-1.58-.78-.41-.19-.88-.26-1.23-.55-.22-.06-.46-.1-.7-.14-.06-.06-.17-.17-.22-.22-.62-.22-1.24-.46-1.91-.5M754.32,155.33c.55.29,1.35.36,1.59,1.01.5.25.91.63,1.35.97.35.22.64.52.84.88.34.25.66.54.81.94.12.1.23.2.33.3,0,.1.03.3.04.41.08.05.23.14.3.18.02.21.03.42.05.63.08.04.25.14.33.18.02.22.05.44.08.67.09.02.28.06.37.08.06.28.13.56.21.85.46,1.18.21,2.47.28,3.7.06.82-.34,1.58-.49,2.37-.09.02-.27.07-.36.09-.03.12-.08.38-.11.5-.29.51-.53,1.05-.74,1.59-.07.02-.21.07-.28.09-.05.19-.11.39-.16.59-.2.13-.41.26-.63.4-.22.68-.9,1.04-1.44,1.47-.58.44-1.23.78-1.8,1.24-.4.16-.81.28-1.24.4-.74.19-1.44.54-2.22.53-1.21.01-2.43.07-3.63-.06-.8-.2-1.57-.48-2.37-.69-1.38-.79-2.72-1.69-3.83-2.83-.17-.34-.41-.65-.73-.87-.13-.35-.09-.84-.52-.99-.02-.09-.06-.26-.08-.35-.07-.04-.21-.1-.29-.14-.14-.46-.15-.94-.21-1.4-.08,0-.24,0-.32,0,0-.28,0-.56-.01-.83-.08-.07-.24-.19-.32-.26-.12-1.33-.13-2.68.02-4.01.07-.06.21-.18.28-.24-.16-1.08.52-2.02.96-2.95.09-.03.26-.09.34-.12.03-.09.08-.28.11-.37.37-.35.58-.82.97-1.15.08-.13.16-.25.23-.37.57-.46,1.14-.91,1.71-1.36.06-.02.16-.06.22-.08.25-.56.95-.63,1.43-.92.93-.56,2.02-.71,3.05-.96,2-.24,4.1-.05,5.89.88M584.12,145.35c-1.41-.08-2.8-.5-4.22-.36-.92.08-1.83.22-2.74.33-.83.11-1.67.16-2.46.45-.93.33-1.87.64-2.82.9-.82.22-1.54.66-2.3,1.02-.5.53-1.23.79-1.78,1.27-.93.75-2.02,1.41-2.68,2.43-.33.22-.66.48-.84.85-.22.23-.45.47-.68.71-.05.14-.12.29-.18.44-.13.15-.27.31-.41.47-.06.04-.17.13-.23.18-.13.27-.29.55-.46.81-.04.15-.09.31-.15.47-.11.17-.22.35-.35.54-.07.06-.2.17-.27.23-.01.2-.04.4-.07.61-.47,1.42-1.14,2.79-1.37,4.29-.09.07-.26.2-.35.26-.11,2.52-.16,5.04.02,7.56.06.29-.04.72.37.82.03.33.05.67.07,1.01.54.2.34.87.46,1.31.12.1.24.2.34.31.02.18.04.36.06.56.54.09.36.74.48,1.12.08.04.25.13.33.18.03.18.05.36.06.55.07.05.22.14.3.19.02.11.05.32.07.43.35.46.67.95,1.1,1.35.08.15.15.32.22.49.4.32.74.71.92,1.18.2.09.38.18.56.29.26.62.75,1.1,1.31,1.47.05.07.14.19.19.26.21.08.41.17.59.26.09.12.18.24.26.37.48.27.9.65,1.42.86.5.58,1.29.77,1.92,1.18.7.45,1.5.7,2.29.94.06.06.19.18.25.23.59.13,1.21.22,1.74.52,1.26.22,2.52.44,3.79.56,1.97.03,3.96.11,5.88-.36,1.04-.09,1.99-.49,2.95-.86.83-.35,1.73-.53,2.49-1.02,1.45-.87,2.99-1.68,4.17-2.88.46-.36.9-.74,1.24-1.2.06-.03.18-.08.23-.1.55-.59,1.11-1.17,1.5-1.87.07-.03.2-.09.27-.12.19-.36.37-.72.53-1.09.06-.04.18-.12.25-.16.2-.41.4-.82.6-1.22.07-.05.21-.16.28-.22.02-.1.05-.3.07-.4.08-.06.23-.18.31-.24.04-.25.08-.5.1-.73.14-.15.29-.29.42-.43,0-.21.01-.42,0-.62.08-.06.26-.17.34-.23.03-.4.04-.79.09-1.18.11-.68.4-1.32.39-2.01.01-1.06.2-2.1.21-3.16.02-1.17-.21-2.33-.22-3.49,0-.61-.2-1.19-.36-1.77,0-.1-.02-.3-.02-.4-.15-.1-.34-.2-.35-.4-.13-.61-.29-1.21-.48-1.8-.13-.32.04-.83-.41-.95-.02-.09-.07-.27-.09-.36-.29-.09-.34-.39-.48-.61-.29-.34-.57-.7-.75-1.11-.17-.35-.32-.71-.47-1.07-.06-.04-.19-.11-.26-.14-.33-.57-.79-1.05-1.29-1.48-.04-.08-.13-.24-.17-.33-.34-.21-.65-.47-.87-.8-.65-.36-1.01-1.03-1.65-1.4-1.32-.83-2.58-1.82-4.09-2.31-1.71-.42-3.32-1.24-5.11-1.37M587.21,156.71c.41.39,1.15.59,1.13,1.24.27.24.53.49.79.73.04.1.12.31.16.41.08.04.24.12.33.16.02.1.05.3.06.4.39.07.34.43.39.72.09,0,.28.02.38.02.18,1.23.94,2.33.86,3.6.01,1.04.05,2.08-.08,3.12-.16.29-.29.59-.44.89-.07.51-.28,1-.34,1.53-.06.02-.18.05-.24.07-.04.06-.13.17-.17.23.1.57-.26,1.19-.83,1.4-.04.2-.19.32-.38.41-.03.07-.09.21-.12.29-.36.35-.75.69-1.18.97-.05.21-.13.46-.35.59-.57.41-1.16.86-1.89.95-.21.14-.43.28-.7.31-1.48.94-3.34.92-5.05.87-.73-.06-1.58-.05-2.14-.58-1.14-.12-2.1-.78-3.07-1.32-.87-.49-1.49-1.27-2.23-1.91-.04-.1-.11-.3-.14-.4-.09-.02-.28-.06-.37-.08-.01-.1-.04-.31-.05-.42-.1-.09-.2-.17-.32-.25-.03-.08-.09-.23-.12-.31-.54-.33-.87-.92-.85-1.53,0-.27-.02-.52-.04-.78-.09-.05-.28-.14-.37-.19,0-.13,0-.4.01-.54-.12-.09-.24-.17-.37-.25-.08-.97-.11-1.95-.08-2.92,0-.77.42-1.46.46-2.23.09-.01.27-.04.36-.05.02-.11.06-.32.08-.43-.03-.55.17-1.37.8-1.52v-.03c-.12-.81.76-1.19,1.12-1.8.54-.87,1.45-1.42,2.28-2,.69-.49,1.52-.71,2.3-1.02.52-.2,1.01-.46,1.56-.53,1.43-.19,2.9-.22,4.32.03,1.65.39,3.24,1.08,4.54,2.15M792.19,151.09c-.46-.36-.91-.78-1.53-.83.16.14.32.29.47.43.32.2.66.41,1.06.4M581.6,162.77s-.12-.13-.15-.17c-.68,0-1.46-.21-2.07.18-.37.21-.7.46-1.06.7-.01.1-.04.29-.06.38-.09.05-.27.15-.37.2-.03.62-.04,1.24-.02,1.87.09.04.27.13.36.17.01.1.04.31.05.42.63.78,1.68,1.01,2.66.89.58.04,1.03-.34,1.46-.65.03-.07.09-.2.12-.26.55-.91.53-2.04,0-2.96-.04-.07-.1-.22-.14-.29-.26-.17-.52-.34-.79-.49M751.18,162.82c-.81-.31-1.71-.37-2.51-.01-.24.23-.5.45-.76.67-.02.1-.05.3-.07.4-.09.01-.27.04-.36.05-.07.63-.1,1.26-.06,1.89.41.25.7.62.87,1.06.02.05.07.16.1.21.46.21.94.47,1.46.46.81.05,1.54-.38,2.15-.84.55-.78.56-1.76.36-2.65-.16-.24-.28-.51-.4-.76-.27-.14-.56-.27-.78-.49"/>
  <g>
    <path class="cls-3" d="M172.63,271.61c-.86,8.46-.95,18.12-.26,29,.69,10.88,1.63,22.03,2.84,33.45,1.2,11.42,2.32,22.57,3.35,33.45,1.03,10.88,1.46,20.59,1.29,29.13-.17,8.54-1.21,15.42-3.1,20.64-1.9,5.21-5.25,7.82-10.06,7.82-2.24,0-3.96-1.53-5.16-4.59-1.21-3.06-2.06-6.74-2.58-11.06-.52-4.32-.82-8.81-.9-13.49-.09-4.67-.13-8.72-.13-12.14,0-3.06-.04-6.16-.13-9.31-.09-3.14-.13-6.52-.13-10.12h-.26c-18.75,1.26-37.51,2.29-56.25,3.1-18.75.81-37.76,1.58-57.03,2.29v7.82c-.17,3.42-.56,7.82-1.16,13.22-.6,5.39-1.42,10.7-2.45,15.92s-2.28,9.71-3.74,13.49c-1.46,3.78-3.14,5.67-5.03,5.67-1.03,0-2.02-1.58-2.97-4.72-.95-3.15-1.72-7.28-2.32-12.41-.6-5.13-1.16-11.01-1.68-17.67-.52-6.65-.86-13.49-1.03-20.5-2.06,0-4.3.09-6.71.27-2.41.18-4.69.18-6.84,0-2.15-.18-3.92-.63-5.29-1.35-1.38-.72-2.06-1.98-2.06-3.78,0-1.62.73-2.92,2.19-3.91,1.46-.99,3.23-1.75,5.29-2.29,2.06-.54,4.3-.9,6.71-1.08,2.41-.18,4.56-.27,6.45-.27-.52-11.33-.65-22.57-.39-33.72.26-11.15.39-22.48.39-33.99,0-5.93.08-11.37.26-16.32.17-4.94.52-9.21,1.03-12.81.52-3.6,1.25-6.43,2.19-8.5.94-2.07,2.19-3.1,3.74-3.1,2.41,0,4.6.81,6.58,2.43,1.98,1.62,3.61,3.64,4.9,6.07s2.28,5.17,2.97,8.23c.69,3.06,1.03,5.93,1.03,8.63v.81c-.52,14.93-.9,27.02-1.16,36.28-.26,9.26-.43,16.72-.52,22.39-.09,5.67-.17,10.07-.26,13.22-.09,3.15-.13,6.07-.13,8.77,7.57-.72,16.34-1.84,26.32-3.37,9.98-1.53,20.17-2.92,30.58-4.18,10.41-1.26,20.51-2.16,30.32-2.7,9.81-.54,18.32-.18,25.55,1.08-.17-4.13-.26-8.32-.26-12.54v-12.54c0-5.57.04-12.5.13-20.77.08-8.27.47-16.23,1.16-23.87.69-7.64,1.76-14.2,3.23-19.69,1.46-5.48,3.57-8.23,6.32-8.23,1.72,0,2.97.94,3.74,2.83.77,1.89,1.29,4.05,1.55,6.47.26,2.43.3,4.86.13,7.28-.17,2.43-.26,4.18-.26,5.26Z"/>
    <path class="cls-3" d="M222.69,334.47c2.41.54,4.52,1.71,6.32,3.51,1.81,1.8,3.31,3.78,4.52,5.93,1.38-1.62,3.1-2.52,5.16-2.7,2.06-.18,4.04.13,5.94.94,1.89.81,3.44,2.07,4.64,3.78,1.2,1.71,1.63,3.73,1.29,6.07-.69,3.24-1.33,7.28-1.94,12.14-.6,4.86-.99,9.53-1.16,14.03-.17,4.5-.04,8.36.39,11.6.43,3.24,1.33,4.86,2.71,4.86,1.03,0,2.28-1.39,3.74-4.18,1.46-2.79,2.92-6.07,4.39-9.85,1.46-3.78,2.79-7.55,4-11.33,1.2-3.78,1.98-6.65,2.32-8.63.52-1.79,1.38-3.01,2.58-3.64,1.2-.63,2.36-.81,3.48-.54,1.12.27,2.06.94,2.84,2.02.77,1.08.9,2.43.39,4.05-.35,1.08-.9,3.1-1.68,6.07-.77,2.97-1.77,6.25-2.97,9.85-1.21,3.6-2.62,7.33-4.26,11.19-1.64,3.87-3.53,7.28-5.68,10.25-2.15,2.97-4.56,5.26-7.23,6.88-2.67,1.62-5.55,1.98-8.64,1.08-4.99-1.44-8.6-4.59-10.84-9.44-1.38,4.32-3.27,8.23-5.68,11.73-2.41,3.51-5.51,6.07-9.29,7.69-3.61,1.26-6.8,1.53-9.55.81-4.99-1.44-8.95-4.68-11.87-9.71-2.93-5.03-4.9-10.88-5.94-17.53-1.03-6.65-1.12-13.58-.26-20.77.86-7.19,2.62-13.66,5.29-19.42,2.67-5.75,6.23-10.29,10.71-13.62,4.47-3.33,9.89-4.36,16.26-3.1ZM229.4,361.71c-.35-3.06-.99-6.02-1.94-8.9-.95-2.88-2.37-4.49-4.26-4.86-2.75-.54-5.21.5-7.35,3.1-2.15,2.61-3.92,6.07-5.29,10.39-1.38,4.32-2.37,9.04-2.97,14.16-.6,5.13-.77,9.98-.52,14.57.26,4.59.94,8.5,2.06,11.73,1.12,3.24,2.79,5.04,5.03,5.39,2.23.36,4.34-.9,6.32-3.78,1.98-2.87,3.7-6.56,5.16-11.06,1.46-4.49,2.58-9.48,3.35-14.97.77-5.48.9-10.74.39-15.78Z"/>
    <path class="cls-3" d="M294.69,315.04c.34,1.98.13,3.82-.65,5.53-.77,1.71-1.94,3.24-3.48,4.59s-3.35,2.47-5.42,3.37c-2.06.9-4.22,1.53-6.45,1.89-4.3.54-8.52.09-12.64-1.35-4.13-1.44-6.45-4.05-6.97-7.82-.69-3.95.48-7.33,3.48-10.12,3.01-2.79,7.01-4.63,12-5.53,4.99-.9,9.46-.49,13.42,1.21,3.96,1.71,6.19,4.45,6.71,8.23ZM265.27,352c0-4.32,1.07-7.28,3.23-8.9,2.15-1.62,4.52-2.25,7.1-1.89,2.58.36,4.81,1.53,6.71,3.51,1.89,1.98,2.58,4.41,2.06,7.28-.69,3.24-1.33,7.28-1.94,12.14-.6,4.86-.99,9.53-1.16,14.03-.17,4.5-.04,8.36.39,11.6.43,3.24,1.42,4.86,2.97,4.86,1.03,0,2.28-1.39,3.74-4.18,1.46-2.79,2.88-6.07,4.26-9.85,1.38-3.78,2.67-7.55,3.87-11.33,1.2-3.78,1.98-6.65,2.32-8.63.52-1.79,1.38-3.01,2.58-3.64,1.2-.63,2.36-.81,3.48-.54,1.12.27,2.06.94,2.84,2.02.77,1.08.9,2.43.39,4.05-.35,1.08-.9,3.1-1.68,6.07-.77,2.97-1.77,6.25-2.97,9.85-1.21,3.6-2.62,7.33-4.26,11.19-1.64,3.87-3.53,7.28-5.68,10.25-2.15,2.97-4.52,5.26-7.1,6.88-2.58,1.62-5.42,1.98-8.52,1.08-4.65-1.44-7.96-4.09-9.94-7.96-1.98-3.86-3.14-8.36-3.48-13.49-.34-5.12-.3-10.7.13-16.72.43-6.02.65-11.91.65-17.67Z"/>
    <path class="cls-3" d="M379.07,310.19c0-4.13,1.07-7.82,3.23-11.06,2.15-3.24,4.86-5.98,8.13-8.23,3.27-2.25,6.88-3.95,10.84-5.12,3.96-1.17,7.74-1.75,11.35-1.75,2.41,0,4.73.27,6.97.81,2.23.54,3.35,1.53,3.35,2.97,0,.9-.86,2.29-2.58,4.18-1.72,1.89-4.56,3.55-8.52,4.99-.69.36-1.81.99-3.35,1.89-1.55.9-3.1,1.93-4.65,3.1-1.55,1.17-2.93,2.47-4.13,3.91-1.21,1.44-1.81,2.79-1.81,4.05,0,2.34,2.41,4.5,7.23,6.47,4.81,1.98,10.66,2.97,17.55,2.97,4.99,0,10.15-.63,15.48-1.89,5.33-1.26,10.19-3.01,14.58-5.26,4.39-2.25,8-5.08,10.84-8.5,2.84-3.41,4.26-7.28,4.26-11.6,0-3.95-1.03-7.28-3.1-9.98-2.06-2.7-4.73-4.94-8-6.74-3.27-1.79-6.84-3.24-10.71-4.32s-7.61-1.84-11.23-2.29c-3.61-.45-6.8-.72-9.55-.81-2.75-.09-4.56-.13-5.42-.13-6.54,0-13.55.67-21.03,2.02-7.48,1.35-14.88,3.42-22.19,6.2-7.31,2.79-14.32,6.25-21.03,10.39-6.71,4.14-12.6,8.95-17.68,14.43-5.08,5.49-9.12,11.6-12.13,18.34-3.01,6.74-4.52,14.16-4.52,22.25s1.42,14.66,4.26,20.77c2.84,6.12,6.58,11.51,11.23,16.19,4.65,4.68,9.98,8.63,16,11.87,6.02,3.24,12.26,5.89,18.71,7.96,6.45,2.07,12.86,3.6,19.22,4.59,6.36.99,12.3,1.48,17.81,1.48,12.73,0,25.46-1.48,38.19-4.45,12.73-2.97,25.03-7.42,36.9-13.35,7.23-3.59,12.21-5.71,14.97-6.34,2.75-.63,4.13-.49,4.13.4,0,1.98-1.03,3.87-3.1,5.67-2.06,1.8-5.08,4.05-9.03,6.74-14.11,9.71-28.99,17.04-44.64,21.98-15.66,4.94-31.22,7.42-46.71,7.42-9.81,0-20.43-1.62-31.87-4.86-11.44-3.24-22.02-8.14-31.74-14.7-9.72-6.56-17.81-14.88-24.26-24.95-6.45-10.07-9.68-21.94-9.68-35.61,0-15.28,3.61-29,10.84-41.14,7.23-12.14,16.47-22.34,27.74-30.62,11.27-8.27,23.78-14.61,37.55-19.02,13.76-4.4,27.26-6.61,40.51-6.61,7.23,0,15.01.81,23.35,2.43,8.34,1.62,16.13,4.32,23.35,8.09s13.25,8.81,18.06,15.11c4.81,6.3,7.23,14.12,7.23,23.47,0,7.55-2.11,14.34-6.32,20.37-4.22,6.03-9.59,11.06-16.13,15.11-6.54,4.05-13.68,7.15-21.42,9.31-7.74,2.16-15.14,3.24-22.19,3.24-5.51,0-10.97-.58-16.39-1.75-5.42-1.17-10.28-3.06-14.58-5.67-4.3-2.6-7.74-5.89-10.32-9.85-2.58-3.95-3.87-8.81-3.87-14.57Z"/>
    <path class="cls-3" d="M495.7,345.26c0-3.06,1.07-5.35,3.23-6.88,2.15-1.53,4.52-2.43,7.1-2.7,2.58-.27,4.9.09,6.97,1.08,2.06.99,3.01,2.47,2.84,4.45-.35,5.76-.86,11.78-1.55,18.07-.69,6.3-1.38,12.14-2.06,17.53-.69,5.4-1.12,9.94-1.29,13.62-.17,3.69.26,5.71,1.29,6.07.86.36,1.81-.31,2.84-2.02,1.03-1.71,2.06-4,3.1-6.88,1.03-2.87,2.1-6.11,3.23-9.71,1.12-3.59,2.19-7.19,3.23-10.79,1.03-3.59,1.98-7.01,2.84-10.25.86-3.24,1.63-5.84,2.32-7.82.17-2.7,1.33-4.36,3.48-4.99,2.15-.63,4.43-.58,6.84.13,2.41.72,4.52,1.8,6.32,3.24,1.81,1.44,2.62,2.97,2.45,4.59-.69,3.24-1.33,7.28-1.94,12.14-.6,4.86-.99,9.53-1.16,14.03-.17,4.5-.04,8.36.39,11.6.43,3.24,1.42,4.86,2.97,4.86,1.03,0,2.28-1.39,3.74-4.18,1.46-2.79,2.88-6.07,4.26-9.85,1.37-3.78,2.67-7.55,3.87-11.33,1.2-3.78,1.98-6.65,2.32-8.63.34-1.79,1.12-3.01,2.32-3.64,1.2-.63,2.41-.81,3.61-.54,1.2.27,2.19.94,2.97,2.02.77,1.08.9,2.43.39,4.05-.35,1.44-1.08,4.14-2.19,8.09-1.12,3.96-2.58,8.27-4.39,12.95-1.81,4.68-3.96,9.17-6.45,13.49-2.5,4.32-5.29,7.46-8.39,9.44-1.9,1.26-4,1.79-6.32,1.62s-4.56-.85-6.71-2.02c-2.15-1.17-4.04-2.87-5.68-5.12-1.64-2.25-2.71-4.9-3.23-7.96-.52-2.7-.77-5.75-.77-9.17-1.55,5.04-3.35,9.8-5.42,14.3-2.06,4.5-4.48,8.18-7.23,11.06-1.72,1.98-3.74,3.1-6.06,3.37-2.32.27-4.56-.13-6.71-1.21-2.15-1.08-4.04-2.66-5.68-4.72-1.64-2.07-2.71-4.45-3.23-7.15s-.77-6.11-.77-10.25.13-8.63.39-13.49c.26-4.86.6-9.89,1.03-15.11.43-5.21.73-10.34.9-15.38Z"/>
    <path class="cls-3" d="M733.88,382.21c0-2.16-.04-4.63-.13-7.42-.09-2.79-.22-5.8-.39-9.04-20.64.9-41.2,1.62-61.67,2.16-20.47.54-41.12.99-61.93,1.35-.86,6.66-1.51,13.35-1.94,20.1-.43,6.74-.9,13.45-1.42,20.1-.35,4.86-1.29,7.28-2.84,7.28-1.03,0-2.15-.67-3.35-2.02-1.21-1.35-2.32-2.97-3.35-4.86-1.03-1.89-1.98-3.78-2.84-5.66-.86-1.89-1.46-3.37-1.81-4.45-1.21-3.59-2.19-7.28-2.97-11.06-.77-3.78-1.16-7.64-1.16-11.6v-3.78c0-1.26.17-2.61.52-4.05h-9.03c-.86,0-2.02-.09-3.48-.27-1.46-.18-2.93-.49-4.39-.94-1.46-.45-2.75-.99-3.87-1.62-1.12-.63-1.68-1.39-1.68-2.29s.52-1.71,1.55-2.43c1.03-.72,2.32-1.3,3.87-1.75,1.55-.45,3.27-.81,5.16-1.08,1.89-.27,3.61-.41,5.16-.41h9.03c1.38-7.01,3.23-14.88,5.55-23.6,2.32-8.72,5.25-17.49,8.77-26.3,3.52-8.81,7.61-17.35,12.26-25.63,4.65-8.27,9.98-15.65,16-22.12,6.02-6.47,12.73-11.64,20.13-15.51,7.39-3.87,15.57-5.8,24.51-5.8s16.3,1.71,23.09,5.12c6.79,3.42,12.68,8,17.68,13.76,4.99,5.76,9.2,12.37,12.64,19.83,3.44,7.46,6.28,15.24,8.52,23.33,2.23,8.09,3.87,16.28,4.9,24.55,1.03,8.27,1.63,16.01,1.81,23.2,2.92.9,5.63,2.2,8.13,3.91,2.49,1.71,3.74,4.09,3.74,7.15,0,1.26-.43,2.25-1.29,2.97-.86.72-1.94,1.26-3.23,1.62-1.29.36-2.67.59-4.13.67-1.46.09-2.8.13-4,.13-.35,3.78-.86,8.5-1.55,14.16-.69,5.67-1.59,11.15-2.71,16.45-1.12,5.31-2.41,9.85-3.87,13.62-1.46,3.78-3.06,5.66-4.77,5.66-.69,0-1.03-.99-1.03-2.97,0-5.21.3-10.29.9-15.24.6-4.94.9-10.02.9-15.24ZM647.17,275.39c-11.18,12.05-19.44,24.95-24.77,38.71-5.33,13.76-9.12,28.01-11.35,42.75,9.98-.9,20-2.02,30.06-3.37,10.06-1.35,20.13-2.56,30.19-3.64,10.06-1.08,20.13-1.93,30.19-2.56,10.06-.63,20.17-.67,30.32-.13-1.03-9.71-2.67-19.73-4.9-30.08-2.24-10.34-5.42-19.78-9.55-28.32-4.13-8.54-9.33-15.6-15.61-21.17-6.28-5.57-13.89-8.36-22.84-8.36-5.85,0-11.48,1.48-16.9,4.45-5.42,2.97-10.37,6.88-14.84,11.73Z"/>
    <path class="cls-3" d="M768.45,345.26c0-3.06,1.07-5.35,3.23-6.88,2.15-1.53,4.52-2.43,7.1-2.7s4.9.09,6.97,1.08c2.06.99,3.01,2.47,2.84,4.45-.35,5.76-.86,11.78-1.55,18.07-.69,6.3-1.38,12.14-2.06,17.53-.69,5.4-1.12,9.94-1.29,13.62-.17,3.69.26,5.71,1.29,6.07.86.36,1.81-.31,2.84-2.02,1.03-1.71,2.06-4,3.1-6.88,1.03-2.87,2.1-6.11,3.23-9.71,1.12-3.59,2.19-7.19,3.23-10.79,1.03-3.59,1.98-7.01,2.84-10.25.86-3.24,1.63-5.84,2.32-7.82.17-2.7,1.33-4.36,3.48-4.99,2.15-.63,4.43-.58,6.84.13,2.41.72,4.52,1.8,6.32,3.24,1.81,1.44,2.62,2.97,2.45,4.59-.69,3.24-1.33,7.28-1.94,12.14-.61,4.86-.99,9.53-1.16,14.03-.17,4.5-.04,8.36.39,11.6.43,3.24,1.42,4.86,2.97,4.86,1.03,0,2.28-1.39,3.74-4.18,1.46-2.79,2.88-6.07,4.26-9.85,1.38-3.78,2.67-7.55,3.87-11.33,1.2-3.78,1.98-6.65,2.32-8.63.34-1.79,1.12-3.01,2.32-3.64,1.2-.63,2.41-.81,3.61-.54,1.2.27,2.19.94,2.97,2.02.77,1.08.9,2.43.39,4.05-.35,1.44-1.08,4.14-2.19,8.09-1.12,3.96-2.58,8.27-4.39,12.95-1.81,4.68-3.96,9.17-6.45,13.49-2.5,4.32-5.29,7.46-8.39,9.44-1.9,1.26-4,1.79-6.32,1.62s-4.56-.85-6.71-2.02c-2.15-1.17-4.04-2.87-5.68-5.12-1.64-2.25-2.71-4.9-3.23-7.96-.52-2.7-.77-5.75-.77-9.17-1.55,5.04-3.35,9.8-5.42,14.3-2.06,4.5-4.48,8.18-7.23,11.06-1.72,1.98-3.74,3.1-6.06,3.37-2.32.27-4.56-.13-6.71-1.21-2.15-1.08-4.04-2.66-5.68-4.72-1.64-2.07-2.71-4.45-3.23-7.15-.52-2.7-.77-6.11-.77-10.25s.13-8.63.39-13.49c.26-4.86.6-9.89,1.03-15.11.43-5.21.73-10.34.9-15.38Z"/>
    <path class="cls-3" d="M838.9,319.63c0-1.26.04-2.47.13-3.64.08-1.17.13-2.2.13-3.1,0-4.32,1.12-7.33,3.35-9.04,2.23-1.71,4.64-2.47,7.22-2.29,2.58.18,4.86,1.17,6.84,2.97,1.98,1.8,2.71,4.14,2.19,7.01l-1.29,7.01h6.19c3.27,0,5.63.59,7.1,1.75,1.46,1.17,2.19,2.43,2.19,3.78s-.77,2.56-2.32,3.64c-1.55,1.08-3.7,1.62-6.45,1.62h-7.74c-.69,6.47-1.29,13.62-1.81,21.44-.52,7.82-.86,15.2-1.03,22.12-.17,6.92-.09,12.68.26,17.26.34,4.59,1.12,6.88,2.32,6.88,1.03,0,2.45-1.62,4.26-4.86,1.81-3.24,3.65-6.97,5.55-11.19,1.89-4.22,3.61-8.36,5.16-12.41,1.55-4.05,2.58-6.79,3.1-8.23.34-1.62,1.12-2.7,2.32-3.24,1.2-.54,2.36-.67,3.48-.4,1.12.27,2.06.9,2.84,1.89.77.99.9,2.29.39,3.91-1.03,3.6-2.41,8.27-4.13,14.03-1.72,5.76-3.87,11.33-6.45,16.72-2.58,5.39-5.68,10.07-9.29,14.03-3.61,3.95-7.92,5.93-12.9,5.93-3.27,0-5.93-1.35-8-4.05s-3.61-6.25-4.65-10.66c-1.03-4.4-1.68-9.48-1.93-15.24-.26-5.75-.3-11.69-.13-17.8.17-6.11.52-12.27,1.03-18.48.52-6.2.94-11.91,1.29-17.13h-6.19c-2.75,0-4.86-.54-6.32-1.62-1.46-1.08-2.23-2.25-2.32-3.51-.08-1.26.56-2.43,1.94-3.51,1.38-1.08,3.61-1.62,6.71-1.62h6.97Z"/>
    <path class="cls-3" d="M897.47,401.09c-6.37,0-11.44-1.71-15.22-5.12-3.79-3.41-6.41-7.64-7.87-12.68-1.46-5.03-1.89-10.52-1.29-16.46.61-5.93,2.06-11.37,4.39-16.32,2.32-4.94,5.38-9.04,9.16-12.27,3.78-3.24,8.26-4.67,13.42-4.32,6.02.36,10.92,2.25,14.71,5.67,3.78,3.42,6.54,7.65,8.26,12.68,1.72,5.04,2.45,10.39,2.19,16.05-.26,5.67-1.51,10.92-3.74,15.78-2.24,4.86-5.38,8.9-9.42,12.14-4.04,3.24-8.9,4.86-14.58,4.86ZM900.83,388.95c1.89.18,3.44-.76,4.64-2.83,1.2-2.07,2.06-4.76,2.58-8.09.52-3.33.73-6.97.64-10.92-.09-3.95-.52-7.64-1.29-11.06-.77-3.41-1.85-6.29-3.23-8.63-1.38-2.33-3.01-3.51-4.9-3.51-1.72,0-3.19,1.08-4.39,3.24-1.21,2.16-2.11,4.86-2.71,8.09-.6,3.24-.9,6.79-.9,10.65s.34,7.46,1.03,10.79c.69,3.33,1.72,6.16,3.1,8.5,1.38,2.34,3.18,3.6,5.42,3.78Z"/>
    <path class="cls-3" d="M939.53,364.14c-.35,1.44-1.08,2.47-2.19,3.1-1.12.63-2.28.81-3.48.54-1.21-.27-2.15-.9-2.84-1.89-.69-.99-.69-2.29,0-3.91l1.55-4.58c-1.55-1.62-2.41-3.51-2.58-5.67-.17-2.16.17-4.18,1.03-6.07.86-1.89,2.1-3.51,3.74-4.86,1.63-1.35,3.48-2.02,5.55-2.02,3.61,0,5.59,1.4,5.94,4.18.34,2.79-.17,5.89-1.55,9.31,1.03.54,2.71.63,5.03.27,2.32-.36,4.52-.58,6.58-.67,2.06-.09,3.78.32,5.16,1.21,1.38.9,1.72,2.97,1.03,6.2-.69,3.24-1.42,7.11-2.19,11.6-.77,4.5-1.33,8.77-1.68,12.81-.35,4.05-.35,7.51,0,10.39.34,2.88,1.29,4.32,2.84,4.32,1.03,0,2.36-1.57,4-4.72,1.63-3.14,3.31-6.79,5.03-10.92,1.72-4.13,3.27-8.32,4.64-12.54,1.38-4.22,2.23-7.42,2.58-9.58.34-1.79,1.07-3.06,2.19-3.78,1.12-.72,2.28-1.03,3.48-.94,1.2.09,2.19.63,2.97,1.62.77.99,1.07,2.38.9,4.18-.17.9-.6,2.83-1.29,5.8-.69,2.97-1.64,6.3-2.84,9.98-1.21,3.69-2.67,7.55-4.39,11.6-1.72,4.05-3.79,7.78-6.19,11.2-2.41,3.42-5.08,6.16-8,8.23-2.93,2.07-6.19,3.01-9.81,2.83-4.13-.18-7.14-2.12-9.03-5.8-1.89-3.68-3.1-8.09-3.61-13.22s-.39-10.56.39-16.32c.77-5.75,1.85-10.79,3.23-15.11-.86.18-1.72.27-2.58.27h-2.58c-.52.9-.86,1.89-1.03,2.97Z"/>
    <path class="cls-3" d="M978.49,345.26c0-3.06,1.07-5.35,3.23-6.88,2.15-1.53,4.52-2.43,7.1-2.7,2.58-.27,4.9.09,6.97,1.08,2.06.99,3.01,2.47,2.84,4.45-.35,5.76-.86,11.78-1.55,18.07-.69,6.3-1.38,12.14-2.06,17.53-.69,5.4-1.12,9.94-1.29,13.62-.17,3.69.26,5.71,1.29,6.07.86.36,1.81-.31,2.84-2.02,1.03-1.71,2.06-4,3.1-6.88,1.03-2.87,2.11-6.11,3.23-9.71,1.12-3.59,2.19-7.19,3.23-10.79,1.03-3.59,1.98-7.01,2.84-10.25.86-3.24,1.63-5.84,2.32-7.82.17-2.7,1.33-4.36,3.48-4.99,2.15-.63,4.43-.58,6.84.13,2.41.72,4.52,1.8,6.32,3.24,1.81,1.44,2.62,2.97,2.45,4.59-.69,3.24-1.33,7.28-1.94,12.14-.6,4.86-.99,9.53-1.16,14.03-.17,4.5-.04,8.36.39,11.6.43,3.24,1.42,4.86,2.97,4.86,1.03,0,2.28-1.39,3.74-4.18,1.46-2.79,2.88-6.07,4.26-9.85,1.38-3.78,2.67-7.55,3.87-11.33,1.2-3.78,1.98-6.65,2.32-8.63.34-1.79,1.12-3.01,2.32-3.64,1.2-.63,2.41-.81,3.61-.54,1.2.27,2.19.94,2.97,2.02.77,1.08.9,2.43.39,4.05-.35,1.44-1.08,4.14-2.19,8.09-1.12,3.96-2.58,8.27-4.39,12.95-1.81,4.68-3.96,9.17-6.45,13.49-2.5,4.32-5.29,7.46-8.39,9.44-1.9,1.26-4,1.79-6.32,1.62s-4.56-.85-6.71-2.02c-2.15-1.17-4.04-2.87-5.68-5.12-1.64-2.25-2.71-4.9-3.23-7.96-.52-2.7-.77-5.75-.77-9.17-1.55,5.04-3.35,9.8-5.42,14.3-2.06,4.5-4.48,8.18-7.23,11.06-1.72,1.98-3.74,3.1-6.06,3.37-2.32.27-4.56-.13-6.71-1.21-2.15-1.08-4.04-2.66-5.68-4.72-1.64-2.07-2.71-4.45-3.23-7.15-.52-2.7-.77-6.11-.77-10.25s.13-8.63.39-13.49c.26-4.86.6-9.89,1.03-15.11.43-5.21.73-10.34.9-15.38Z"/>
    <path class="cls-3" d="M1050.49,295.35c0-4.32,1.12-7.33,3.35-9.04,2.23-1.71,4.69-2.47,7.35-2.29,2.67.18,4.99,1.17,6.97,2.97,1.98,1.8,2.71,4.14,2.19,7.01-.35,2.16-.9,6.38-1.68,12.68-.77,6.3-1.51,13.53-2.19,21.71-.69,8.18-1.29,16.68-1.81,25.49-.52,8.81-.82,16.95-.9,24.41-.09,7.46.17,13.58.77,18.34.6,4.77,1.76,7.15,3.48,7.15,1.03,0,2.45-1.98,4.26-5.93,1.81-3.95,3.61-8.45,5.42-13.49,1.81-5.03,3.48-9.93,5.03-14.7,1.55-4.76,2.58-7.87,3.1-9.31.34-1.62,1.12-2.7,2.32-3.24,1.2-.54,2.36-.67,3.48-.4,1.12.27,2.06.9,2.84,1.89.77.99.9,2.29.39,3.91-1.03,3.6-2.41,8.63-4.13,15.11-1.72,6.47-3.87,12.86-6.45,19.15-2.58,6.3-5.68,11.78-9.29,16.45-3.61,4.67-7.92,7.01-12.9,7.01-4.65,0-8.13-2.56-10.45-7.69-2.32-5.13-3.92-11.64-4.77-19.56-.86-7.91-1.16-16.72-.9-26.44s.73-19.19,1.42-28.46c.69-9.26,1.38-17.71,2.06-25.36.69-7.64,1.03-13.44,1.03-17.4Z"/>
    <path class="cls-3" d="M1109.32,401.09c-6.37,0-11.44-1.71-15.22-5.12-3.79-3.41-6.41-7.64-7.87-12.68-1.46-5.03-1.89-10.52-1.29-16.46.6-5.93,2.06-11.37,4.39-16.32,2.32-4.94,5.38-9.04,9.16-12.27,3.78-3.24,8.26-4.67,13.42-4.32,6.02.36,10.92,2.25,14.71,5.67,3.78,3.42,6.54,7.65,8.26,12.68,1.72,5.04,2.45,10.39,2.19,16.05-.26,5.67-1.51,10.92-3.74,15.78-2.24,4.86-5.38,8.9-9.42,12.14-4.04,3.24-8.9,4.86-14.58,4.86ZM1112.67,388.95c1.89.18,3.44-.76,4.64-2.83,1.2-2.07,2.06-4.76,2.58-8.09.52-3.33.73-6.97.65-10.92-.09-3.95-.52-7.64-1.29-11.06-.77-3.41-1.85-6.29-3.23-8.63-1.38-2.33-3.01-3.51-4.9-3.51-1.72,0-3.18,1.08-4.39,3.24-1.21,2.16-2.11,4.86-2.71,8.09-.61,3.24-.9,6.79-.9,10.65s.34,7.46,1.03,10.79c.69,3.33,1.72,6.16,3.1,8.5,1.38,2.34,3.18,3.6,5.42,3.78Z"/>
    <path class="cls-3" d="M1146.22,319.63c0-1.26.04-2.47.13-3.64.08-1.17.13-2.2.13-3.1,0-4.32,1.12-7.33,3.35-9.04,2.23-1.71,4.64-2.47,7.23-2.29,2.58.18,4.86,1.17,6.84,2.97,1.98,1.8,2.71,4.14,2.19,7.01l-1.29,7.01h6.19c3.27,0,5.63.59,7.1,1.75,1.46,1.17,2.19,2.43,2.19,3.78s-.77,2.56-2.32,3.64c-1.55,1.08-3.7,1.62-6.45,1.62h-7.74c-.69,6.47-1.29,13.62-1.81,21.44-.52,7.82-.86,15.2-1.03,22.12-.17,6.92-.09,12.68.26,17.26.34,4.59,1.12,6.88,2.32,6.88,1.03,0,2.45-1.62,4.26-4.86,1.81-3.24,3.65-6.97,5.55-11.19,1.89-4.22,3.61-8.36,5.16-12.41,1.55-4.05,2.58-6.79,3.1-8.23.34-1.62,1.12-2.7,2.32-3.24,1.2-.54,2.36-.67,3.48-.4,1.12.27,2.06.9,2.84,1.89.77.99.9,2.29.39,3.91-1.03,3.6-2.41,8.27-4.13,14.03-1.72,5.76-3.87,11.33-6.45,16.72-2.58,5.39-5.68,10.07-9.29,14.03-3.61,3.95-7.91,5.93-12.9,5.93-3.27,0-5.93-1.35-8-4.05s-3.61-6.25-4.64-10.66c-1.03-4.4-1.68-9.48-1.94-15.24-.26-5.75-.3-11.69-.13-17.8.17-6.11.52-12.27,1.03-18.48.52-6.2.94-11.91,1.29-17.13h-6.19c-2.75,0-4.86-.54-6.32-1.62-1.46-1.08-2.23-2.25-2.32-3.51-.08-1.26.56-2.43,1.94-3.51,1.38-1.08,3.61-1.62,6.71-1.62h6.97Z"/>
    <path class="cls-3" d="M1211.76,334.47c2.41.54,4.52,1.71,6.32,3.51,1.81,1.8,3.31,3.78,4.52,5.93,1.38-1.62,3.1-2.52,5.16-2.7,2.06-.18,4.04.13,5.93.94,1.89.81,3.44,2.07,4.65,3.78,1.2,1.71,1.63,3.73,1.29,6.07-.69,3.24-1.33,7.28-1.94,12.14-.6,4.86-.99,9.53-1.16,14.03-.17,4.5-.04,8.36.39,11.6.43,3.24,1.33,4.86,2.71,4.86,1.03,0,2.28-1.39,3.74-4.18,1.46-2.79,2.92-6.07,4.39-9.85,1.46-3.78,2.79-7.55,4-11.33,1.2-3.78,1.98-6.65,2.32-8.63.52-1.79,1.38-3.01,2.58-3.64,1.2-.63,2.36-.81,3.48-.54,1.12.27,2.06.94,2.84,2.02.77,1.08.9,2.43.39,4.05-.35,1.08-.9,3.1-1.68,6.07-.77,2.97-1.77,6.25-2.97,9.85-1.21,3.6-2.62,7.33-4.26,11.19-1.64,3.87-3.53,7.28-5.68,10.25-2.15,2.97-4.56,5.26-7.22,6.88-2.67,1.62-5.55,1.98-8.64,1.08-4.99-1.44-8.6-4.59-10.84-9.44-1.38,4.32-3.27,8.23-5.68,11.73-2.41,3.51-5.51,6.07-9.29,7.69-3.61,1.26-6.8,1.53-9.55.81-4.99-1.44-8.95-4.68-11.87-9.71-2.93-5.03-4.9-10.88-5.93-17.53-1.03-6.65-1.12-13.58-.26-20.77.86-7.19,2.62-13.66,5.29-19.42,2.67-5.75,6.23-10.29,10.71-13.62,4.47-3.33,9.89-4.36,16.26-3.1ZM1218.47,361.71c-.35-3.06-.99-6.02-1.93-8.9-.95-2.88-2.37-4.49-4.26-4.86-2.75-.54-5.21.5-7.35,3.1-2.15,2.61-3.92,6.07-5.29,10.39-1.38,4.32-2.37,9.04-2.97,14.16-.6,5.13-.77,9.98-.52,14.57.26,4.59.94,8.5,2.06,11.73,1.12,3.24,2.79,5.04,5.03,5.39,2.23.36,4.34-.9,6.32-3.78,1.98-2.87,3.7-6.56,5.16-11.06,1.46-4.49,2.58-9.48,3.35-14.97.77-5.48.9-10.74.39-15.78Z"/>
    <path class="cls-3" d="M1293.3,391.38c-.35,4.5-2.19,7.69-5.55,9.58-3.35,1.89-6.84,2.39-10.45,1.48-3.44-.9-6.58-2.74-9.42-5.53-2.84-2.79-4.09-6.25-3.74-10.39.34-4.67,2.02-7.96,5.03-9.85,3.01-1.89,6.49-2.56,10.45-2.02,3.96.9,7.31,2.88,10.06,5.93,2.75,3.06,3.96,6.66,3.61,10.79Z"/>
    <path class="cls-3" d="M1307.75,364.14c-.35,1.44-1.08,2.47-2.19,3.1-1.12.63-2.28.81-3.48.54-1.21-.27-2.15-.9-2.84-1.89-.69-.99-.69-2.29,0-3.91l1.55-4.58c-1.55-1.62-2.41-3.51-2.58-5.67-.17-2.16.17-4.18,1.03-6.07.86-1.89,2.1-3.51,3.74-4.86,1.63-1.35,3.48-2.02,5.55-2.02,3.61,0,5.59,1.4,5.94,4.18.34,2.79-.17,5.89-1.55,9.31,1.03.54,2.71.63,5.03.27,2.32-.36,4.52-.58,6.58-.67,2.06-.09,3.78.32,5.16,1.21,1.38.9,1.72,2.97,1.03,6.2-.69,3.24-1.42,7.11-2.19,11.6-.77,4.5-1.33,8.77-1.68,12.81-.35,4.05-.35,7.51,0,10.39.34,2.88,1.29,4.32,2.84,4.32,1.03,0,2.36-1.57,4-4.72,1.63-3.14,3.31-6.79,5.03-10.92,1.72-4.13,3.27-8.32,4.64-12.54,1.38-4.22,2.23-7.42,2.58-9.58.34-1.79,1.07-3.06,2.19-3.78,1.12-.72,2.28-1.03,3.48-.94,1.2.09,2.19.63,2.97,1.62.77.99,1.07,2.38.9,4.18-.17.9-.6,2.83-1.29,5.8-.69,2.97-1.64,6.3-2.84,9.98-1.21,3.69-2.67,7.55-4.39,11.6-1.72,4.05-3.79,7.78-6.19,11.2-2.41,3.42-5.08,6.16-8,8.23-2.93,2.07-6.19,3.01-9.81,2.83-4.13-.18-7.14-2.12-9.03-5.8-1.89-3.68-3.1-8.09-3.61-13.22-.52-5.12-.39-10.56.39-16.32.77-5.75,1.85-10.79,3.23-15.11-.86.18-1.72.27-2.58.27h-2.58c-.52.9-.86,1.89-1.03,2.97Z"/>
    <path class="cls-3" d="M1369.42,401.09c-6.37,0-11.44-1.71-15.22-5.12-3.79-3.41-6.41-7.64-7.87-12.68-1.46-5.03-1.89-10.52-1.29-16.46.6-5.93,2.06-11.37,4.39-16.32,2.32-4.94,5.38-9.04,9.16-12.27,3.78-3.24,8.26-4.67,13.42-4.32,6.02.36,10.92,2.25,14.71,5.67,3.78,3.42,6.54,7.65,8.26,12.68,1.72,5.04,2.45,10.39,2.19,16.05-.26,5.67-1.51,10.92-3.74,15.78-2.24,4.86-5.38,8.9-9.42,12.14-4.04,3.24-8.9,4.86-14.58,4.86ZM1372.77,388.95c1.89.18,3.44-.76,4.64-2.83,1.2-2.07,2.06-4.76,2.58-8.09.52-3.33.73-6.97.65-10.92-.09-3.95-.52-7.64-1.29-11.06-.77-3.41-1.85-6.29-3.23-8.63-1.38-2.33-3.01-3.51-4.9-3.51-1.72,0-3.18,1.08-4.39,3.24-1.21,2.16-2.11,4.86-2.71,8.09-.61,3.24-.9,6.79-.9,10.65s.34,7.46,1.03,10.79c.69,3.33,1.72,6.16,3.1,8.5,1.38,2.34,3.18,3.6,5.42,3.78Z"/>
  </g>
  <g>
    <path class="cls-3" d="M100.59,483.91l-2.79,4.38c-4.08-2.15-6.93-3.22-8.57-3.22-3.24,0-5.66.86-7.25,2.59-1.59,1.73-2.38,4.1-2.38,7.11s.83,5.19,2.5,6.91c1.67,1.72,3.96,2.57,6.88,2.57,1.19,0,2.35-.14,3.49-.42,1.14-.28,2.1-.63,2.89-1.03.79-.4,1.49-.81,2.12-1.23.63-.42,1.08-.77,1.37-1.07l.43-.4,2.94,3.53c-.1.18-.24.41-.43.69-.19.28-.67.79-1.42,1.52-.75.73-1.61,1.38-2.55,1.95-.95.57-2.24,1.08-3.88,1.54s-3.4.69-5.3.69c-5.42,0-9.55-1.37-12.37-4.11-2.82-2.74-4.24-6.45-4.24-11.13s1.45-8.38,4.36-11.2c2.9-2.82,7.02-4.23,12.35-4.23,1.64,0,3.17.16,4.6.47,1.43.31,2.57.69,3.42,1.14.85.45,1.58.89,2.19,1.34.61.45,1.03.82,1.25,1.12l.39.49Z"/>
    <path class="cls-3" d="M148.54,480.11h9.92l11.41,29.06h-7.56l-2.41-5.95h-13.05l-2.26,5.95h-7.46l11.41-29.06ZM153.45,473.94c1.12,0,2.08-.24,2.86-.72.79-.48,1.31-.95,1.56-1.43l.34-.67.34.09,4.24.8c-.03.15-.08.35-.14.6-.06.25-.3.71-.7,1.36-.4.66-.91,1.23-1.52,1.72-.61.49-1.52.94-2.74,1.34s-2.63.6-4.24.6-2.97-.19-4.19-.58c-1.22-.39-2.13-.86-2.74-1.41-.61-.55-1.11-1.1-1.49-1.66-.39-.55-.63-1.02-.72-1.41l-.14-.58,4.28-.8.29-.09c.03.09.08.19.14.31.06.12.22.34.46.67.24.33.52.61.84.85.32.24.77.46,1.35.67.58.21,1.22.31,1.93.31ZM153.45,484.98h-.05l-4.86,13.68h9.68l-4.77-13.68Z"/>
    <path class="cls-3" d="M230.62,503.72v5.45h-21.9v-29.06h7.41v23.61h14.49Z"/>
    <path class="cls-3" d="M277.13,480.11h9.92l11.41,29.06h-7.56l-2.41-5.95h-13.05l-2.26,5.95h-7.46l11.41-29.06ZM282.04,473.94c1.12,0,2.08-.24,2.86-.72.79-.48,1.31-.95,1.56-1.43l.34-.67.34.09,4.24.8c-.03.15-.08.35-.14.6-.06.25-.3.71-.7,1.36-.4.66-.91,1.23-1.52,1.72-.61.49-1.52.94-2.74,1.34s-2.63.6-4.24.6-2.97-.19-4.19-.58c-1.22-.39-2.13-.86-2.74-1.41-.61-.55-1.11-1.1-1.49-1.66-.39-.55-.63-1.02-.72-1.41l-.14-.58,4.28-.8.29-.09c.03.09.08.19.14.31.06.12.22.34.46.67.24.33.52.61.84.85.32.24.77.46,1.35.67.58.21,1.22.31,1.93.31ZM282.04,484.98h-.05l-4.86,13.68h9.68l-4.77-13.68Z"/>
    <path class="cls-3" d="M355.36,480.11v5.46h-8.62v23.61h-7.46v-23.61h-8.62v-5.46h24.7Z"/>
    <path class="cls-3" d="M420.32,483.53c2.94,2.79,4.4,6.51,4.4,11.16s-1.47,8.37-4.4,11.16c-2.94,2.79-7.04,4.18-12.3,4.18s-9.34-1.39-12.23-4.18-4.33-6.51-4.33-11.16,1.44-8.37,4.33-11.16,6.96-4.18,12.23-4.18,9.36,1.39,12.3,4.18ZM414.79,501.64c1.59-1.74,2.38-4.06,2.38-6.95s-.8-5.22-2.41-6.98c-1.6-1.76-3.85-2.64-6.74-2.64s-5.07.88-6.64,2.64c-1.57,1.76-2.36,4.08-2.36,6.98s.77,5.21,2.31,6.95c1.54,1.74,3.77,2.62,6.69,2.62s5.18-.87,6.76-2.62Z"/>
    <path class="cls-3" d="M475.47,480.11c4.04,0,7.17.85,9.39,2.55s3.32,4.13,3.32,7.29c0,4.02-1.93,6.9-5.78,8.63l7.8,10.6h-8.52l-6.6-9.3h-3.61v9.3h-6.88v-29.06h10.88ZM474.17,485.3h-2.7v9.93h2.94c2.15,0,3.72-.39,4.72-1.18.99-.79,1.49-2.06,1.49-3.82,0-3.28-2.15-4.92-6.45-4.92Z"/>
    <path class="cls-3" d="M537.04,480.11v29.06h-7.41v-29.06h7.41Z"/>
    <path class="cls-3" d="M586.72,480.11v29.06h-7.41v-29.06h7.41Z"/>
    <path class="cls-3" d="M697.11,493.12v5.28h-12.71v10.78h-7.41v-29.06h22.1v5.46h-14.68v7.56h12.71Z"/>
    <path class="cls-3" d="M743.85,480.11h9.92l11.41,29.06h-7.56l-2.41-5.95h-13.05l-2.26,5.95h-7.46l11.41-29.06ZM748.76,473.94c1.12,0,2.08-.24,2.86-.72.79-.48,1.31-.95,1.56-1.43l.34-.67.34.09,4.24.8c-.03.15-.08.35-.15.6s-.3.71-.7,1.36c-.4.66-.91,1.23-1.52,1.72-.61.49-1.53.94-2.74,1.34-1.22.4-2.63.6-4.24.6s-2.97-.19-4.19-.58c-1.22-.39-2.14-.86-2.74-1.41-.61-.55-1.11-1.1-1.49-1.66-.39-.55-.63-1.02-.72-1.41l-.14-.58,4.28-.8.29-.09c.03.09.08.19.14.31s.22.34.46.67c.24.33.52.61.84.85.32.24.77.46,1.35.67s1.22.31,1.93.31ZM748.76,484.98h-.05l-4.86,13.68h9.68l-4.77-13.68Z"/>
    <path class="cls-3" d="M814.91,480.11c4.04,0,7.17.85,9.39,2.55,2.21,1.7,3.32,4.13,3.32,7.29,0,4.02-1.93,6.9-5.78,8.63l7.8,10.6h-8.52l-6.6-9.3h-3.61v9.3h-6.88v-29.06h10.88ZM813.61,485.3h-2.7v9.93h2.94c2.15,0,3.72-.39,4.72-1.18.99-.79,1.49-2.06,1.49-3.82,0-3.28-2.15-4.92-6.45-4.92Z"/>
    <path class="cls-3" d="M877.11,480.11h9.92l11.41,29.06h-7.56l-2.41-5.95h-13.05l-2.26,5.95h-7.46l11.41-29.06ZM882.02,473.94c1.12,0,2.08-.24,2.86-.72.79-.48,1.31-.95,1.56-1.43l.34-.67.34.09,4.24.8c-.03.15-.08.35-.15.6s-.3.71-.7,1.36c-.4.66-.91,1.23-1.52,1.72-.61.49-1.53.94-2.74,1.34-1.22.4-2.63.6-4.24.6s-2.97-.19-4.19-.58c-1.22-.39-2.14-.86-2.74-1.41-.61-.55-1.11-1.1-1.49-1.66-.39-.55-.63-1.02-.72-1.41l-.14-.58,4.28-.8.29-.09c.03.09.08.19.14.31s.22.34.46.67c.24.33.52.61.84.85.32.24.77.46,1.35.67s1.22.31,1.93.31ZM882.02,484.98h-.05l-4.86,13.68h9.68l-4.77-13.68Z"/>
    <path class="cls-3" d="M1007.18,503.72v5.45h-21.9v-29.06h7.41v23.61h14.49Z"/>
    <path class="cls-3" d="M1053.06,480.11v29.06h-7.41v-29.06h7.41Z"/>
    <path class="cls-3" d="M1135.38,480.11v29.06h-7.12v-19.9h-.19l-9.15,19.9h-7.17l-9.15-19.9h-.14v19.9h-7.12v-29.06h9.63l10.25,22.58h.24l10.25-22.58h9.68Z"/>
    <path class="cls-3" d="M1185.07,480.11v29.06h-7.41v-29.06h7.41Z"/>
    <path class="cls-3" d="M1248.27,480.11v5.46h-8.62v23.61h-7.46v-23.61h-8.62v-5.46h24.7Z"/>
    <path class="cls-3" d="M1309.41,503.72v5.45h-22.63v-29.06h21.81v5.46h-14.39v6.35h12.76v5.23h-12.76v6.57h15.21Z"/>
  </g>
</svg>